<?xml version="1.0" encoding="UTF-8"?>
<svg id="Layer_2" data-name="Layer 2" xmlns="http://www.w3.org/2000/svg" viewBox="0 0 47.49 64.21">
  <defs>
    <style>
      .cls-1, .cls-2 {
        fill: #ddd8cf;
      }

      .cls-3 {
        stroke-width: 1.09px;
      }

      .cls-3, .cls-4, .cls-5, .cls-6 {
        stroke: #000;
      }

      .cls-3, .cls-4, .cls-5, .cls-6, .cls-7 {
        stroke-miterlimit: 10;
      }

      .cls-3, .cls-8, .cls-7 {
        fill: #fff;
      }

      .cls-4 {
        fill: none;
        stroke-linecap: round;
        stroke-width: 1.42px;
      }

      .cls-5 {
        fill: #fa0032;
        stroke-width: 1.06px;
      }

      .cls-2 {
        opacity: .52;
      }

      .cls-9 {
        fill: #ddd8d1;
        opacity: .6;
      }

      .cls-10 {
        fill: #bb0015;
        opacity: 0;
      }

      .cls-6 {
        fill: #fef9ef;
        stroke-width: 1.31px;
      }

      .cls-11 {
        fill: #6d4425;
      }

      .cls-7 {
        stroke: #bb0015;
        stroke-width: .12px;
      }

      .cls-12 {
        fill: #12e647;
      }

      .cls-13 {
        fill: #dbd7cd;
      }
    </style>
  </defs>
  <g id="Layer_1-2" data-name="Layer 1">
    <g id="coffee_category">
      <g>
        <path class="cls-5" d="M29.49,19.53c-10.8-1.85-22.35,4-24.32,13.91-2.29,11.53,3.73,20.85,14.82,23.54,10.95,2.66,24.73-3.4,26.67-15,2.11-12.66-7.22-20.75-17.17-22.45Z"/>
        <path class="cls-10" d="M18.54,22.81c-3.08.08-4.2.8-6.84,2.92,0,0-4.46,3.58-5.22,9.76-.81,6.67,6.36,18.45,14.36,21.25-.9-.13-3.33-.8-5.21-1.72-3.31-1.6-6.4-3.79-8.79-8.5-.54-1.07-1.95-5.13-1.66-9.81.64-10.47,8.51-13.52,9.69-14.24,1.12.13,2.72-.05,4.09-.2-.19.2-.23.36-.43.56Z"/>
      </g>
      <g id="cheeks">
        <path class="cls-7" d="M12.1,42.4c.07-.87,1.33-1.38,2.39-1.35,1.19.04,2.34,1.08,2.35,1.8.02.87-.79,1.42-2.26,1.36-1.56-.06-2.55-.86-2.48-1.8Z"/>
        <path class="cls-7" d="M42.36,40.9c-.07-.87-.91-1.25-1.94-1-1.25.3-2.13.77-2.15,1.49-.02.87.68,1.23,2.16,1.17,1.56-.06,2-.73,1.93-1.67Z"/>
      </g>
      <g id="eyes">
        <g>
          <g>
            <path d="M19.06,31.21c-2.54,0-4.35,2.89-4.36,5.35,0,2.45,1.76,4.83,4.13,4.93,2.59.12,4.72-2.69,4.54-5.44-.15-2.3-1.89-4.85-4.32-4.84Z"/>
            <path class="cls-8" d="M20.47,33.27c-.5-.43-1.12-.27-1.55.21-.44.5-.39,1.48.14,1.92.55.44,1.19.29,1.58-.25.34-.48.3-1.46-.18-1.87Z"/>
          </g>
          <g>
            <path d="M35.49,30.43c-2.54-.03-4.34,2.6-4.35,5.06,0,2.45,1.77,4.9,4.14,5,2.73.12,4.42-2.55,4.23-5.5-.15-2.3-2.02-4.54-4.02-4.57Z"/>
            <path class="cls-8" d="M34.52,32.49c-.66-.04-1.35.45-1.35,1.21,0,.8.52,1.25,1.21,1.27.7.02,1.27-.54,1.25-1.21-.02-.59-.47-1.24-1.1-1.27Z"/>
          </g>
        </g>
      </g>
      <path id="mouth" class="cls-4" d="M24.14,41.86c.21.23,1.3,1.5,3.29,1.54,2.31.05,3.34-1.71,3.47-1.89"/>
      <g id="hat">
        <g>
          <g>
            <path class="cls-8" d="M9.61,24.22c-.4-1.14-.75-2.55-.99-4.28-3.89.77-7.47-1.83-8.01-5.11C.02,11.3,3.05,7.45,7.35,7.38c.84-3.63,3.89-6.35,7.55-6.74,3.76-.4,8.58,1.09,9.08,5.4-3.66-3.33,4.26-6.21,7.31-2.15,1.19,1.56,1.88,3.91.9,6.09-1.33,2.94-4.57,3.35-4.71,3.37.42-.09.84-.17,1.25-.26.42,1.75.95,3.33.64,5.28-6.82,1.89-12.94,3.97-19.77,5.86Z"/>
            <path d="M9.35,24.71c-.15-.08-.32-.46-.35-.57-.44-1.33-.73-2.72-.92-4.11,0,0,.65.46.65.46C4.84,21.32.4,18.62.03,14.49c-.37-4.09,3.33-7.65,7.31-7.66,0,0-.52.42-.52.42.41-1.96,1.5-3.76,3.04-5.05,3.05-2.64,7.69-2.84,11.2-.98,1.65.93,3.35,2.76,3.04,4.8-.07.25.01.3-.19.09-1.09-.46-1.6-2.02-.83-3,1.49-1.83,4.07-2.04,6.16-1.36,3.22,1.12,4.88,5.22,3.54,8.38-.91,1.99-3.01,3.66-5.25,3.61,0,0-2.2-.34-2.2-.34l2.07-.45c.23-.05,1.41-.3,1.64-.35.5,2,1.18,4.07.84,6.19-4.9,1.35-10.26,3.05-15.16,4.52-1.57.41-3.76,1.24-5.36,1.39h0ZM9.86,23.74c.51-.34,1.49-.58,2.07-.74,0,0,2.47-.73,2.47-.73l4.93-1.5c3.29-1.01,6.58-2.01,9.9-2.93l-.39.44c.38-1.7-.08-3.41-.5-5.1,0,0,.48.3.48.3l-1.26.25s-.12-.78-.12-.78c.21-.03.42-.27.65-.29.23-.06.45-.14.67-.23,5.7-2.14,3.45-10.91-2.64-10-1.22.16-2.98.8-2.68,2.25.11.41.37.81.63,1.26,0,0-.19.1-.19.09-1.13-3.77-4.78-5.16-8.47-4.88-3.74.18-6.9,3.12-7.64,6.75-5.76-.28-9.37,7.09-4.08,10.55,1.57,1.06,3.58,1.3,5.4.83.2,1.52.48,3.04.96,4.49.02.08,0,0-.03-.02-.04-.03-.09-.04-.14-.03h0Z"/>
          </g>
          <path d="M9.07,18.43c3.07-3.4,7.79-4.66,12.19-5.24,1.48-.18,3.01-.22,4.49.15,0,0,0,.13,0,.13-2.54.45-6.11,1.03-8.55,1.78-2.87.7-5.3,2.14-8.01,3.32,0,0-.11-.15-.11-.15h0Z"/>
        </g>
        <g>
          <path class="cls-2" d="M10.07,22.85c.87-.56,2.02-1.3,2.89-1.86-.9-.3-.96-2.21-1.27-3.28-.88.42-1.69.89-2.57,1.31.31,1.22.63,2.62.94,3.83Z"/>
          <path class="cls-2" d="M1.79,12.78c-.44,1.86.14,3.81,1.52,5.11,1.46,1.37,4.42,1.46,5.49,1.09.1-.64.4-1.14.67-1.49,1.5-1.92,5.39-2.87,6.03-3.2-.45.09-3.06.55-5.42-1.19-1.79-1.31-2.06-2.48-2.59-3.78-.45,2.74.37,5.19,1.27,5.66-2.11,1.79-6.1,2.98-6.97-2.2Z"/>
          <path class="cls-1" d="M31.33,9.31s-1.77,2.12-3.97,2.1c-1.47-.01-2.65-.35-3.51-1.76-1.08,1.71-1.04,2.51-2.96,3.35,1.48-.16,3.04-.07,4.46-.13.22,0,.41.14.44.35s.05.44.14.67c.55.01.89.04,1.44.05-.12-.39-.27-.81-.38-1.2,4.28-1.11,4.34-3.44,4.34-3.44Z"/>
        </g>
      </g>
      <g>
        <g id="lower">
          <path class="cls-12" d="M8.39,25.1s-.04,0-.04-.02c.51-1.84,8.16-5.91,15.51-6.34,10.34-.6,16.98,2.55,16.68,3.53,0,.01-.02.02-.04.03-3.86,1.59-13.05-1.79-16.52-1.07-3.5.33-12.75,5.22-15.59,3.87Z"/>
          <path d="M8.16,25.58c.12.05.13.04.1.04-.04-.02-.02.03-.26-.12-.33-.43-.1-.7-.16-.56,0,0,.03-.06.03-.06l.06-.13c.22-.52.65-.91,1.05-1.27,3.04-2.37,6.76-3.7,10.47-4.61,6.39-1.29,13.23-.95,19.34,1.41.77.34,3.09,1.42,2.01,2.47-1.27.54-2.77.57-4.09.51-4.35-.11-8.39-2.32-12.72-1.96-4,.8-7.46,3.26-11.46,4.17-1.44.33-2.86.72-4.36.12h0ZM8.62,24.62c2.29.51,5.16-.75,7.47-1.41,2.57-.8,5.24-1.61,7.88-2.05,4.25-.41,8.59.75,12.81.98,1.17.05,2.31.06,3.37-.29,0,0,.09-.03.09-.03h.04s.02-.02.02-.02c0,0,.03-.02-.06.03-.18.14-.21.29-.21.35-1.9-1.4-5.12-2.16-7.72-2.57-4.16-.58-8.5-.66-12.61.27-3.53.87-7.12,2.14-10.02,4.38-.28.27-.6.52-.75.87-.18.29.15.03-.21-.46-.22-.15-.2-.09-.23-.11-.01,0,.01,0,.15.05h0Z"/>
        </g>
        <g id="upper">
          <path class="cls-12" d="M18.89,21.12c-3.82,2.77-5.71,7.35-5.35,7.71s9.57-2.2,10.23-6.77c2.99,3.99,11.71,5.63,12.18,5.04.42-.52-1.84-3.86-5.4-6.58"/>
          <path d="M18.91,21.15c-2.06,2.18-4.2,4.61-4.91,7.51-.02-.11-.13-.24-.25-.28,3.45-.82,8.11-2.62,9.81-6.34,0,0,0-.44,0-.44,0,0,.38.34.38.34,3.17,2.81,7.52,4.55,11.74,4.79.02,0,.03-.04-.09.08-.1.18-.03.12-.06.06-.96-2.49-3.13-4.48-4.98-6.35,2.37.7,3.89,2.8,5.24,4.73.34.58,1.27,2.02.11,2.39-2.72.15-5.39-.84-7.87-1.89-1.69-.81-3.5-1.79-4.44-3.55,0,0,.38-.1.38-.1.45,3.71-7.52,7.4-10.59,7.23-.71-.35-.28-1.27-.09-1.78,1.15-2.56,3.07-5.31,5.62-6.39h0Z"/>
        </g>
      </g>
      <g id="coffee">
        <path class="cls-6" d="M17.69,60.64c4.28,3.17,10.72,2.14,13.38-.63,1.08-1.13,4.03-9.09,2.79-11.19-2.16-3.65-17.87-3.48-19.78-.06-.88,1.58,1.28,10.15,3.61,11.87Z"/>
        <path class="cls-13" d="M30.52,57.43c-3.21,2.51-4.61,2.88-6.67,2.74-.61-.04-1.22-.21-1.75-.52-3.4-1.99-5.05-7.84-5.36-11.38-.44-.03-1.06.52-1.56.72-.34.14-.55.49-.5.86.31,2.39.74,5.97,2.35,7.75.95,1.7,1.95,3.27,3.65,3.68,7.73,1.66,10.03-2.15,9.84-3.84Z"/>
        <path class="cls-11" d="M16.86,50.11c0-.66,3.57-1.23,6.26-1.32,3.96-.14,8.28.68,8.28,1.4,0,.68-3.85,1.29-6.87,1.32-3.62.04-7.67-.7-7.66-1.4Z"/>
        <path d="M16.86,50.01c.42.89,2.16.99,3.09,1.17,3.9.32,8.38.24,11.87-1.63.58-.42,1.21.49.6.89-2.23,1.92-16.2,3.39-16.57-.46.01-.68,1.04-.65,1.01.03h0Z"/>
        <path class="cls-3" d="M34.07,51.69c2.75.33,3.2,3.39,3.03,4.6-.19,1.33-2.31,3.45-5.02,2.4.05.7-1.24,1.15-1.19,1.85,4.37,1.43,8.52-.94,8.84-4.75.4-4.87-5.22-6.86-5.55-5.71-.07.24-.26.98-.1,1.61Z"/>
      </g>
      <g id="right_hand">
        <path class="cls-3" d="M9.95,59.83c-.92-3.01,2.03-6.32,3.86-6.24.44.02,1.96-.1,2.14,1.98.01.12.14.2.26.23.4.11,1.19.25,1.54,1.25.13.37.08,1.17,0,1.57-.02.13.05.26.18.29.88.23,2.38,1.27-.73,4.18-1.78,1.67-6.51-.8-7.26-3.28Z"/>
        <g id="fingers">
          <path d="M13.26,56.67c.58-.75,1.57-1.22,2.55-1.24.33-.02.68-.01.93.29l-.11.52c-.59.27-1.06-.07-1.65.06-.54.04-1.08.22-1.63.48l-.09-.11h0Z"/>
          <path d="M14.31,59.4c1.03-.01,1.93-.19,2.76-.71.26-.17.48-.37.91-.35l.38.48c-.28.8-1.22.9-1.92,1.08-.76.1-1.52-.03-2.16-.35l.04-.16h0Z"/>
          <path d="M15.49,62.06c.62.12,1.18.12,1.74-.09.18-.07.34-.16.59-.1l.17.34c-.13.25-.36.32-.59.36-.67.16-1.42,0-1.95-.41,0,0,.04-.09.04-.09h0Z"/>
        </g>
        <path class="cls-9" d="M11.26,56.34c.67,5.05,5.28,6.57,6.75,3.52.36,1.79-2.06,2.16-2.97,2.08-.02,0-.03.03-.02.04.28.21.8.47,1.1.68.03.02,0,.06-.02.06-5.89-.59-5.89-4.21-4.83-6.38Z"/>
      </g>
      <g id="left_hand">
        <path class="cls-3" d="M44.65,59.15c1.09-3.58-1.79-6.15-3.63-6.07-.44.02-1.96-.1-2.14,1.98-.01.12-.14.2-.26.23-.4.11-1.19.25-1.54,1.25-.13.37-.08,1.17,0,1.57.02.13-.06.25-.18.29-.74.24-2.35,1.54.73,4.18,1.75,1.5,6.11-.42,7.03-3.46Z"/>
        <g id="fingers-2" data-name="fingers">
          <path d="M41.83,56.14c-.89-.36-1.78-.46-2.7-.35-.3.04-.57.12-.92-.05l-.11-.52c.28-.31.65-.32,1-.3,1.03.01,2.12.36,2.82,1.12,0,0-.08.11-.08.11h0Z"/>
          <path d="M40.56,59.04c-.93.51-2.21.4-3.14-.15-.32-.16-.64-.34-.73-.76l.38-.48c.75.01,1.01.65,1.65.86.52.27,1.14.37,1.81.38l.04.16h0Z"/>
          <path d="M38.98,61.81c-.7.27-1.58.19-2.25-.21-.23-.12-.47-.27-.51-.58l.29-.31c.51.06.69.48,1.15.64.38.19.83.3,1.31.35v.11h.01Z"/>
        </g>
        <path class="cls-9" d="M43.84,56.15c-.67,5.05-5.41,6.2-6.87,3.15-.36,1.79,1.74,2.32,2.66,2.24.02,0,.03.03.02.04-.28.21-.8.47-1.1.68-.03.02,0,.06.02.06,5.4-.5,6.07-4.26,5.27-6.17Z"/>
      </g>
    </g>
  </g>
</svg>