<?xml version="1.0" encoding="UTF-8"?>
<svg id="Layer_2" data-name="Layer 2" xmlns="http://www.w3.org/2000/svg" viewBox="0 0 302.51 333.6">
  <defs>
    <style>
      .cls-1, .cls-2 {
        fill: #94d7f2;
      }

      .cls-3 {
        opacity: .75;
      }

      .cls-4 {
        stroke-width: 3.32px;
      }

      .cls-4, .cls-5, .cls-6, .cls-7, .cls-8, .cls-9, .cls-10, .cls-11, .cls-12, .cls-13, .cls-14, .cls-15, .cls-16, .cls-17 {
        stroke-miterlimit: 10;
      }

      .cls-4, .cls-5, .cls-6, .cls-7, .cls-18, .cls-9, .cls-11, .cls-12, .cls-19, .cls-13, .cls-14, .cls-15 {
        stroke: #000;
      }

      .cls-4, .cls-20, .cls-16, .cls-17 {
        fill: #2e99ce;
      }

      .cls-5 {
        stroke-width: 3.99px;
      }

      .cls-5, .cls-18 {
        fill: none;
        stroke-linecap: round;
      }

      .cls-6 {
        fill: #fa0032;
        stroke-width: 5.57px;
      }

      .cls-21 {
        fill: #4fa9cd;
      }

      .cls-7 {
        fill: #e4f0f4;
        stroke-width: .55px;
      }

      .cls-8 {
        stroke-width: .59px;
      }

      .cls-8, .cls-22, .cls-10, .cls-19, .cls-13, .cls-15 {
        fill: #fff;
      }

      .cls-8, .cls-10 {
        stroke: #bb0015;
      }

      .cls-23 {
        fill: #fc3;
      }

      .cls-24 {
        fill: #f66;
      }

      .cls-18 {
        stroke-width: 2.79px;
      }

      .cls-18, .cls-19 {
        stroke-linejoin: round;
      }

      .cls-9 {
        fill: #b2ddec;
        stroke-width: 4.41px;
      }

      .cls-25 {
        fill: #bb0015;
      }

      .cls-10 {
        stroke-width: .53px;
      }

      .cls-11 {
        fill: #3b3d3d;
        stroke-width: 3.11px;
      }

      .cls-12 {
        fill: #d2ecf9;
        stroke-width: 3.68px;
      }

      .cls-2 {
        opacity: .61;
      }

      .cls-19 {
        stroke-width: 1.38px;
      }

      .cls-13 {
        stroke-width: 2.02px;
      }

      .cls-26 {
        fill: #0c9930;
      }

      .cls-14 {
        stroke-width: 3.83px;
      }

      .cls-15 {
        stroke-width: 4.19px;
      }

      .cls-27 {
        fill: #12e647;
      }

      .cls-16 {
        stroke-width: 2.56px;
      }

      .cls-16, .cls-17 {
        stroke: #2e99ce;
      }

      .cls-17 {
        stroke-width: 3.56px;
      }
    </style>
  </defs>
  <g id="Layer_1-2" data-name="Layer 1">
    <g id="results">
      <g id="themes">
        <g id="patogh">
          <g>
            <g>
              <path class="cls-4" d="M88.38,228.22c-7.15,27.17-14.3,56.25-21.45,83.55-.43,1.63.24,3.34,1.64,4.27,19.76,13.12,44.85,15.66,72.28,15.9,1.82.02,3.42-1.21,3.9-2.97,5.37-19.97,10.74-39.94,16.11-59.92.49-1.82-.13-3.76-1.59-4.96-10.21-8.39-21.17-17.33-31.38-25.72-13.41-3.57-26.09-6.58-39.5-10.15Z"/>
              <g id="flower">
                <path class="cls-23" d="M117.51,282.71c1.98-5.47,10.1-16.99-1.08-17.97-11.73-1.03-6.04,10.03-6.04,16.45,1.72-.71,3.79-.18,7.12,1.51Z"/>
                <path class="cls-23" d="M120.34,289.52c6.9.12,20.26-5.86,15.33-13.85-5.37-8.72-15.3.28-18.32,7.18,1.6.95,2.34,2.99,2.99,6.67Z"/>
                <path class="cls-23" d="M118.08,295.65c3.68,5.67,15.21,12.8,18.61,4.05,3.71-9.54-6.61-12.82-16.1-10.58.2,1.85.03,3.8-2.51,6.53Z"/>
                <path class="cls-23" d="M110.9,298.6c-3.07,6.03-3.46,19.58,5.82,18.14,10.12-1.57,7.78-12.14,1.1-19.24-1.5,1.1-3.27,1.93-6.91,1.09Z"/>
                <path class="cls-23" d="M104.76,293.57c-10.48.69-15.74,10.84-11.95,14.96,6.93,7.54,15.92.76,17.04-10.15-1.79-.51-3.53-1.42-5.09-4.81Z"/>
                <path class="cls-23" d="M103.98,285.5c-7.06-8.35-18.81-6.47-19.91-.75-2.03,10.46,9.21,13.8,19.03,7.98-.67-1.81-1-3.83.88-7.23Z"/>
                <path class="cls-23" d="M110.02,281.05c1.04-9.1-2.82-17.5-12.6-15.39-8.72,1.88-.74,15.77,7,19.17.72-1.45,2.45-2.96,5.6-3.77Z"/>
                <g>
                  <path class="cls-20" d="M106.87,297.44c-1.55,1.99-3.87,2.97-4.95,5.13-.45.91-1.87.37-1.62-.6.6-2.6,3.27-4.21,4.88-5.96.95-1.02,2.53.35,1.68,1.43h0Z"/>
                  <path class="cls-20" d="M101.5,289.75c-2.38-.09-5.4.66-7.66-.76-.41-.25-.54-.78-.3-1.19.21-.35.64-.5,1.01-.38,2.29.76,4.61-.19,7.12.12.61.07,1.04.62.97,1.23-.07.58-.57,1-1.15.97h0Z"/>
                  <path class="cls-20" d="M105.37,281.86c-1.3-1.99-3.65-4.03-3.8-6.69-.04-.48.32-.89.8-.93.41-.03.78.23.89.61.69,2.31,2.81,3.66,4,5.89.29.54.09,1.21-.44,1.5-.51.28-1.15.11-1.46-.38h0Z"/>
                  <path class="cls-20" d="M112.68,279.46c.38-1.35,1.06-2.48,1.58-3.53.56-1.06.94-2.04,1.01-3.1.04-.48.45-.84.93-.8.41.03.73.34.79.73.45,2.63-1.4,5.14-2.22,7.38-.5,1.3-2.46.67-2.1-.68h0Z"/>
                  <path class="cls-20" d="M119.64,283.66c2.01-1.51,4.49-1.85,6.09-3.63.32-.38.88-.42,1.25-.09.31.28.37.72.18,1.07-1.26,2.35-4.25,3.21-6.27,4.48-1.19.73-2.35-.98-1.24-1.82h0Z"/>
                  <path class="cls-20" d="M120.87,291.89c1.38.24,2.57.81,3.67,1.23,1.11.45,2.12.73,3.18.7,1.02-.03,1.21,1.47.23,1.71-2.57.7-5.26-.89-7.56-1.49-1.35-.37-.9-2.38.47-2.16h0Z"/>
                  <path class="cls-20" d="M116.33,306.68c-.73-2.26-2.48-4.84-1.93-7.45.09-.47.54-.78,1.02-.69.4.08.69.42.7.82.07,2.41,1.76,4.27,2.34,6.73.14.59-.22,1.19-.82,1.33-.57.14-1.14-.19-1.31-.74h0Z"/>
                </g>
                <circle class="cls-17" cx="111.85" cy="289.85" r="7.06"/>
              </g>
              <path class="cls-18" d="M99.35,229.07c4.42,9.28,6.68,19.95,13.27,27.83,4.43-4.58,9.05-4.73,14.49-8.07-.7,2.52.6,6.09-.1,8.61,5.11,1.56,8.93,2.51,14.24,3.09"/>
            </g>
            <g>
              <path class="cls-4" d="M202.85,228.28c9.04,26.58,8.35,56.5,15.5,83.8.43,1.63-.85,3.37-2.37,4.08-20.53,9.53-29,9.92-55.56,14.21-1.8.29-3.33-1.24-3.9-2.97-6.39-19.52-3.53-35.22-5.1-56.87-.14-1.88.68-3.31,1.59-4.96,6.98-12.65,16.95-27.41,18.12-27.96,13.41-3.57,18.3-5.75,31.72-9.32Z"/>
              <g id="flower-2" data-name="flower">
                <path class="cls-23" d="M188.68,283.54c.44,3.99-.66,13.56,5.32,10.89,6.27-2.8.42-8.03-1.28-12.03-.69.94-1.89,1.22-4.04,1.14Z"/>
                <path class="cls-23" d="M185.42,280.12c-3.56,1.95-8.8,9.6-4.16,13.14,5.06,3.86,7.75-4.67,7.46-9.85-1.07-.13-1.99-1.18-3.3-3.28Z"/>
                <path class="cls-23" d="M184.95,275.64c-3.39-2.46-11.17-3.52-10.59,2.94.64,7.04,6.78,6.05,11.04,1.87-.59-1.09-1.02-2.36-.45-4.81Z"/>
                <path class="cls-23" d="M187.84,271.69c-.03-4.66-3.42-13.22-7.78-9.6-4.76,3.95-.76,9.85,4.54,12.31.47-1.13,1.16-2.16,3.24-2.71Z"/>
                <path class="cls-23" d="M192.32,273.03c5.18-3.5,5.17-11.38,2.14-12.83-5.54-2.67-8.34,4.2-6.02,11.33,1.05-.2,2.18-.15,3.87,1.51Z"/>
                <path class="cls-23" d="M194.85,277.83c5.82,3.14,11.33-1.48,10.38-5.37-1.74-7.12-8.37-5.9-11.84.61.82.93,1.52,2.09,1.47,4.77Z"/>
                <path class="cls-23" d="M192.94,282.38c1.88,5.97,6.08,10.08,10.52,5.9,3.96-3.73-3.8-10.05-8.66-9.9.02,1.12-.47,2.57-1.86,4Z"/>
                <g>
                  <path class="cls-20" d="M190.14,271.3c.27-1.68,1.21-3.05,1.18-4.69-.01-.65.95-.76,1.08-.13.39,1.77-.54,3.48-.9,5.08-.2.85-1.49.6-1.36-.26h0Z"/>
                  <path class="cls-20" d="M194.95,274.53c1.23-.63,2.59-1.99,4.18-1.8.3.03.52.3.48.6-.03.25-.23.45-.47.48-.58.08-1.1.35-1.67.77-.64.31-2.2,2.03-2.85.83-.14-.34.01-.72.33-.88h0Z"/>
                  <path class="cls-20" d="M195.2,280.59c1.2.87,2.98,1.5,3.69,3.03.28.56-.54,1.07-.92.58-.93-1.21-2.42-1.49-3.63-2.52-.29-.25-.32-.69-.07-.98.24-.27.65-.31.94-.11h0Z"/>
                  <path class="cls-20" d="M192.07,284.15c.3,1.7-.13,3.37.43,4.93.1.28-.05.6-.34.7-1.62.2-1.3-4.43-1.47-5.43-.09-.87,1.21-1.05,1.38-.2h0Z"/>
                  <path class="cls-20" d="M187.41,283.48c-.64,1.52-1.85,2.55-2.17,4.11-.13.63-1.09.53-1.08-.11,0-1.75,1.29-3.17,1.99-4.57.4-.78,1.59-.23,1.27.57h0Z"/>
                  <path class="cls-20" d="M184.54,278.74c-.8.26-1.58.23-2.24.31-.68.03-1.22.17-1.73.48-.26.17-.61.1-.77-.17-.13-.22-.09-.49.08-.66,1.07-1.15,2.97-1,4.29-1.3.85-.19,1.19,1.07.37,1.34h0Z"/>
                  <path class="cls-20" d="M183.01,268.33c.98,1.21,2.56,2.32,2.93,4.03.06.3-.12.59-.42.65-.25.05-.5-.07-.61-.3-.31-.65-.73-1.19-1.3-1.71-.44-.61-2.58-1.9-1.53-2.8.3-.21.71-.14.93.13h0Z"/>
                </g>
                <path class="cls-16" d="M185.33,279.18c.9,2.91,3.58,4.49,5.98,3.53s3.62-4.11,2.72-7.03c-.9-2.91-3.58-4.49-5.98-3.53s-3.62,4.11-2.72,7.03Z"/>
              </g>
              <path class="cls-18" d="M199.92,227.01c-3.04,9.82-3.72,20.7-9.11,29.46-5.05-3.9-11.72-5.03-17.58-7.55,1.05,2.4,2.11,4.79,3.16,7.19-4.83,2.28-9.32,4.51-14.15,6.8"/>
            </g>
            <g>
              <circle class="cls-13" cx="162.54" cy="278.46" r="5.68"/>
              <circle class="cls-13" cx="162.93" cy="296.39" r="5.68"/>
            </g>
          </g>
          <g>
            <path class="cls-6" d="M146.71,44.77c-57.82,4.08-109.74,47.83-107.33,100.14,2.79,60.87,45.47,100.33,105.85,100.14,59.59-.19,122.73-47.72,118-108.52-5.17-66.35-63.28-95.52-116.52-91.76Z"/>
            <path class="cls-25" d="M94.83,75.39c-15.71,4.22-20.56,9.25-31.43,23.15,0,0-16.79,22.91-12.84,54.96,4.26,34.56,55.83,82.86,100.43,87.03-4.77.45-18.14.09-28.92-2.22-18.99-3.94-37.36-10.4-55.6-31.18-4.13-4.71-16.64-22.02-21.07-45.94-9.92-53.52,24.99-78,30.17-83.08,3.75-2.11,27.54-21.92,32.92-12.04-.74,1.27-12.91,8.03-13.65,9.3Z"/>
          </g>
          <g id="mouth">
            <path class="cls-14" d="M142.21,166.82c14.3,3.35,26.29,3.53,38.58.74,1.95-.44,3.22,5.63,3.11,7.59-.9,15.19-15.65,23.43-25.72,23.38-11.13-.05-20.63-12.08-19.59-28.68.11-1.81,1.82-3.45,3.62-3.03Z"/>
            <path class="cls-24" d="M157.73,197c-9.13-.33-16.22-11.33-15.53-14.23.82-3.43,13.05-4.21,14.88-4.25,10.1-.24,16.29,5.86,15.94,9.97-.41,4.91-8.5,8.75-15.29,8.5Z"/>
          </g>
          <g id="cheeks" class="cls-3">
            <path class="cls-10" d="M79.14,163.32c.3-3.85,6-6.11,10.78-5.97,5.34.16,10.52,4.75,10.58,7.94.07,3.82-3.55,6.26-10.2,6-7.03-.28-11.48-3.82-11.16-7.97Z"/>
            <path class="cls-8" d="M238.3,164.58c-.35-4.08-4.85-5.37-10.27-4.21-6.56,1.41-11.16,3.14-11.23,6.52-.08,4.06,3.6,5.77,11.36,5.49,8.21-.29,10.52-3.41,10.15-7.81Z"/>
          </g>
          <g id="eyes">
            <g>
              <g>
                <path d="M121.52,111.49c-12.84-.6-22.72,13.25-23.36,25.44-.64,12.14,7.34,25.66,19.29,26.79,13.08,1.24,23.75-13.42,23.55-27.14-.17-11.45-7.18-24.52-19.48-25.09Z"/>
                <path class="cls-22" d="M131.11,124.74c-2.88-2.42-6.43-1.51-8.83,1.16-2.52,2.8-2.22,8.32.83,10.74,3.12,2.47,6.82,1.65,9.02-1.39,1.95-2.69,1.74-8.19-1.01-10.5Z"/>
              </g>
              <g>
                <path d="M203.67,112.65c-12.57-.16-20.02,14.05-20.05,26-.03,11.89,6.42,23.87,18.15,24.36,13.52.57,21.91-13.62,20.93-27.96-.76-11.18-9.15-22.27-19.03-22.4Z"/>
                <path class="cls-22" d="M199.65,123.08c-3.2-.21-6.53,2.42-6.53,6.54,0,4.34,2.52,6.8,5.83,6.9,3.39.1,6.14-2.94,6.02-6.54-.1-3.19-2.27-6.7-5.33-6.9Z"/>
              </g>
            </g>
          </g>
          <g>
            <path class="cls-5" d="M197.24,102.46c4.8-3.27,9.59-2.18,14.28.98"/>
            <path class="cls-5" d="M112.72,103.92c4.62-3.97,9.09-5.6,16.47-2.39"/>
          </g>
          <g>
            <g>
              <path class="cls-27" d="M138.64,59.84c10.3,15.61,25.26,20.14,43.95,18.92,1.24-.08,2.19-1.13,2.13-2.34-.59-11.09-9.94-19.71-24.5-28.22-.03-.02-.01-.06.02-.05,26.25,5.15,39.3-5.95,48-20.62.77-1.3.06-2.98-1.43-3.36-20.84-5.44-36.97,1.87-50.9,17.95,10.23-10.94,20.48-23.4,19.35-33.69-.48-4.35-4.81-7.24-9.2-6.49-41.11,6.98-27.59,44.08-27.25,43.59-3.16-11.61-20.86-28.17-44.15-21.84-2.29.62-3.74,2.87-3.29,5.16,3.57,18.22,22.33,25.04,35.79,23.43-22.04.03-32.54,20.19-31.44,33.66.14,1.69,1.76,2.89,3.47,2.59,20.42-3.52,31.78-12.89,37.42-28.46.32-.88,1.53-1.01,2.04-.23Z"/>
              <path d="M140.09,58.88c9.32,15.08,25.34,19.46,42.2,18.16.29.02.66-.13.69-.46,0-.03,0-.05,0-.09l-.04-.38c-.55-7.94-6.35-14.22-12.36-18.92-3.5-2.75-7.31-5.18-11.19-7.47,0,0-.04-.03-.04-.03.03.28-1.46-1.36-.72-2.27.21-1.1,2.3-1.09,1.96-1,0,0,.05,0,.05,0,0,0,.1.02.1.02,2.76.5,5.95.93,8.76,1.13,9.45.55,19.23-1.65,26.52-7.9,4.05-3.35,7.4-7.63,10.16-12.15.77-1.22.67-1.05.58-1.39-.1-.17-.21-.28-.41-.32-14.71-3.95-28.05-.8-40.27,7.99-3.72,2.26-7.27,5.16-10.19,8.26,1.95-1.51,1.74-4.8,3.46-6.34,4.5-5.18,8.94-10.62,11.9-16.82,1.33-2.76,2.21-5.59,2.35-8.59-.05-1.2-.05-2.55-.6-3.48-1.15-2.32-4.05-3.61-6.62-3.12-15.5,2.58-27.63,11.26-28.01,28.03-.12,2.79.24,5.59.64,8.36.03,1.44-1.1,3.1-.38,4.53.11.19.24.5.45.58-.08-.09-.22-.32-.65.03,0,0-.06.37-.06.37-.39-.46-.93-.86-1.34-1.26-.86-.76-1.15-1.75-1.69-2.69,0,0-.85-1.34-.85-1.34-.19-.34-.66-1-.91-1.3-3.49-4.68-8.2-8.47-13.42-11.05-3.81-1.86-7.94-3.05-12.16-3.41-4.28-.38-8.61.05-12.82,1.12-1.24.31-2.13,1.7-1.72,2.94,2.53,12.08,12.48,18.78,23.87,21.73,3.09,1.19,6.44,2.35,9.77,1.63,0,0,.03.55.03.55-2.24.29-4.36,1.23-6.41,1.99-3.56,1.07-7.07,2.44-10.08,4.64-8.33,6.02-13.73,16.32-13.17,26.68.07.64.78,1.08,1.39.95,0,0,.4-.08.4-.08,1.35-.29,2.73-.48,4.06-.84,6.37-1.47,12.67-3.87,17.95-7.69,5.3-3.75,9.43-9.03,12.1-14.94.49-.97.86-2,1.27-3.02.32-.9.74-1.91,1.69-2.34,1.27-.68,2.98-.24,3.75.97h0ZM137.19,60.8c.23.41.91.32,1.04-.12-.54,1.35-1.03,2.75-1.68,4.05-6.66,15.21-20.91,22.8-36.67,25.44-2.78.77-5.93-1.37-5.94-4.34-.26-3.75.26-7.54,1.28-11.13,2.97-10.31,10.91-19.46,21.37-22.49,3.4-1.37,7.07-.51,10.56-.2,0,0,.03.55.03.55-3.71-.03-7.49,1.16-11.26.96-5.57-.74-10.95-2.91-15.51-6.35-5.33-3.94-9.23-9.88-10.69-16.37,0,0-.22-.88-.22-.88l-.11-.44c-.8-3.23,1.26-6.72,4.41-7.67,16.25-4.71,34.07,1.57,43.25,15.9.7,1.21,1.57,2.67,2.09,3.96.73,1.17.17,2.81.23,4.13-.63.59-.99.28-1.15-.05-.09-.28-.13-.58-.22-.85-.38-1.55-1.99-2.56-2.53-4.03-1.77-7.83-1.44-16.36,2.38-23.65,5.27-10.26,16.65-15.3,27.46-17.02,1.38-.25,2.82-.27,4.19.03,4.95,1.1,7.84,5.22,7.56,10.21-.45,8.48-5.57,15.66-10.54,22.13-1.5,1.86-3.02,3.69-4.59,5.46-.61,1.05-1.9,1.49-3.07,2.02-1.23.45-2.22,1.29-2.98,2.05,2.21-2.48,4.18-5.16,6.42-7.62,9.73-11.28,25.9-15.95,40.35-13,1.4.22,2.77.61,4.15.9,0,0,.41.09.41.09.19.06.45.13.65.23,2.25.89,3.14,4.05,1.71,5.95-11.45,19.48-27.92,25.42-49.67,21.2-.37.08,1.67.1,1.87-.97.72-.88-.74-2.47-.68-2.19,0,0,.04.03.04.03l.09.05.36.21c10.8,6.55,23.64,15.08,24.81,28.87.13.87,0,1.82-.45,2.58-.69,1.24-2.04,2.03-3.45,2.05,0,0-.84.04-.84.04-17.95,1.17-34.28-4.19-44.48-19.74h0Z"/>
            </g>
            <path class="cls-26" d="M205.13,27c-10,6.55-25.33,13.86-42.87,18.6,2.23.76,11.81,3.63,25.33-1.91,11.31-4.64,16.45-14.14,17.54-16.69Z"/>
            <path class="cls-26" d="M94.37,28.62c.33-.32,3.49,3.91,12.46,10,13.01,8.83,25.46,8.41,23.9,13.12-.21.62-4.29,0-8.6-1.14-24.94-6.57-28.4-21.36-27.75-21.97Z"/>
          </g>
          <g id="right_hand">
            <path class="cls-19" d="M64.1,213.1c7.74-2.75,16.32-.25,17.58,5.64,1.28,5.98-4.65,14.95-12.97,15.43-1.47-7.3-3.14-13.78-4.6-21.07Z"/>
            <path class="cls-12" d="M72.5,180.9c.44,7.27-13.01,10.44-30.21,11.48s-29.66-.25-30.1-7.52,13.51-11.21,30.7-12.26,29.17,1.03,29.61,8.3Z"/>
            <path class="cls-11" d="M54,150.42s-.04,0-.05-.01c-1.36-.31-2.75.35-3.24,1.52-5.15,12.49-10.74,35.35-13.02,48.52-.25,1.42.92,2.73,2.52,2.82l1.2.07c1.44.09,2.71-.85,2.89-2.13,1.89-13.19,6.82-35.04,11.6-47.62.51-1.35-.36-2.81-1.91-3.17Z"/>
            <path class="cls-9" d="M26.93,253.13c.13.64.51,1.21,1.04,1.6,2.78,2.02,9.87,6.41,19.66,5.91,10.5-.54,17.78-6.03,20.39-8.42.51-.46.81-1.11.84-1.8,1.12-22.49,1.55-44.19,2.7-66.7,0-.04-.04-.08-.08-.05-5.56,3.06-16.11,6.81-30.6,7.42-12.35.52-21.55-.49-27.21-2.63-.04-.02-.08.02-.07.07,4.65,22.17,8.72,42.49,13.35,64.61Z"/>
            <path class="cls-21" d="M30.27,250.04c.11.5.41.93.84,1.23,2.26,1.56,8.01,4.95,15.96,4.56,8.52-.41,15.48-3.66,17.6-5.5.41-.36.65-.86.68-1.39.91-17.38.92-33.86,1.85-51.26-4.49,2.36-13.79,4.01-25.62,4.48-10.08.4-16.45,1.56-21.04-.12,3.78,17.14,5.96,30.9,9.73,48Z"/>
            <g>
              <g>
                <path class="cls-7" d="M54.88,230.22c-3.07,0-6.1.34-9.2.35-.56,0-1.08.29-1.4.75-1.66,2.43-2.01,3.31-3.72,7.33-.58,1.36-.68,2.88-.28,4.3.78,2.73.9,2.72,1.79,5.4.34,1.01,1.13,1.82,2.15,2.14,2.7.86,5.75,2.07,8.69,2.06,2.68-.56,6.97-4.45,8.55-8.87.88-5.93-2.77-8.86-4.94-12.5-.35-.58-.97-.95-1.64-.95Z"/>
                <path class="cls-2" d="M58.91,243.15c-2.6-.41-5.53-.77-8.08-1.18-.43-.07-.85.1-1.11.45-1.39,1.91-2.78,3.88-4.17,5.81-.44.61-.18,1.48.53,1.74,1.94.71,4.07,1.37,6.3,1.61.25.03.5-.03.71-.16,2.96-1.74,5.75-3.97,6.73-6.75.24-.68-.19-1.42-.9-1.53Z"/>
                <path class="cls-1" d="M58.35,241.62c-2.58-.22-5.26-.51-7.81-.71-.21-.02-.39-.13-.5-.3-1.53-2.43-3.11-5.07-4.64-7.54-.27-.43.02-.99.53-1.01,2.66-.11,5.54-.06,8.16-.2.26-.01.5.12.62.35,1.46,2.78,2.83,5.65,4.28,8.44.24.46-.12,1-.63.96Z"/>
                <path class="cls-1" d="M44.44,233.3c1.02,2.44,2.05,4.89,3.07,7.33-1.25,2.65-2.51,5.3-3.76,7.95-.89-2.76-1.78-5.52-2.67-8.27,1.12-2.34,2.24-4.67,3.36-7.01Z"/>
              </g>
              <g>
                <path class="cls-7" d="M38.74,217.39c2.83,1.19,5.49,2.68,8.34,3.9.51.22.88.69.99,1.23.58,2.88.56,3.83.58,8.2,0,1.48-.49,2.92-1.42,4.07-1.78,2.21-1.89,2.16-3.75,4.28-.7.8-1.75,1.23-2.81,1.14-2.82-.25-6.1-.33-8.81-1.48-2.25-1.55-4.69-6.81-4.43-11.5,1.49-5.8,6-7.08,9.42-9.59.55-.4,1.26-.5,1.88-.24Z"/>
                <path class="cls-2" d="M30,227.74c2.56.64,5.39,1.44,7.91,2.06.42.1.74.43.84.85.54,2.3,1.05,4.66,1.58,6.97.17.74-.41,1.44-1.17,1.4-2.06-.1-4.28-.32-6.43-.97-.24-.07-.45-.22-.59-.42-2.04-2.76-3.75-5.9-3.57-8.83.04-.72.73-1.23,1.43-1.06Z"/>
                <path class="cls-1" d="M31.11,226.54c2.46.8,5.04,1.57,7.47,2.38.2.07.41.04.58-.08,2.35-1.65,4.83-3.46,7.21-5.14.41-.29.36-.92-.1-1.13-2.41-1.14-5.08-2.21-7.44-3.36-.23-.11-.51-.08-.7.08-2.42,1.99-4.81,4.11-7.23,6.11-.4.33-.28.97.21,1.13Z"/>
                <path class="cls-1" d="M47.17,224.29c-1.89,1.85-3.79,3.71-5.68,5.56.12,2.93.25,5.86.37,8.79,1.89-2.19,3.79-4.39,5.68-6.58-.12-2.59-.25-5.18-.37-7.77Z"/>
              </g>
              <g>
                <path class="cls-7" d="M54,203.43c2.83,1.19,5.49,2.68,8.34,3.9.51.22.88.69.99,1.23.58,2.88.56,3.83.58,8.2,0,1.48-.49,2.92-1.42,4.07-1.78,2.21-1.89,2.16-3.75,4.28-.7.8-1.75,1.23-2.81,1.14-2.82-.25-6.1-.33-8.81-1.48-2.25-1.55-4.69-6.81-4.43-11.5,1.49-5.8,6-7.08,9.42-9.59.55-.4,1.26-.5,1.88-.24Z"/>
                <path class="cls-2" d="M45.26,213.78c2.56.64,5.39,1.44,7.91,2.06.42.1.74.43.84.85.54,2.3,1.05,4.66,1.58,6.97.17.74-.41,1.44-1.17,1.4-2.06-.1-4.28-.32-6.43-.97-.24-.07-.45-.22-.59-.42-2.04-2.76-3.75-5.9-3.57-8.83.04-.72.73-1.23,1.43-1.06Z"/>
                <path class="cls-1" d="M46.38,212.59c2.46.8,5.04,1.57,7.47,2.38.2.07.41.04.58-.08,2.35-1.65,4.83-3.46,7.21-5.14.41-.29.36-.92-.1-1.13-2.41-1.14-5.08-2.21-7.44-3.36-.23-.11-.51-.08-.7.08-2.42,1.99-4.81,4.11-7.23,6.11-.4.33-.28.97.21,1.13Z"/>
                <path class="cls-1" d="M62.43,210.34c-1.89,1.85-3.79,3.71-5.68,5.56.12,2.93.25,5.86.37,8.79,1.89-2.19,3.79-4.39,5.68-6.58-.12-2.59-.25-5.18-.37-7.77Z"/>
              </g>
              <g>
                <path class="cls-7" d="M32.48,217.61c-2.83-1.19-5.49-2.68-8.34-3.9-.51-.22-.88-.69-.99-1.23-.58-2.88-.56-3.83-.58-8.2,0-1.48.49-2.92,1.42-4.07,1.78-2.21,1.89-2.16,3.75-4.28.7-.8,1.75-1.23,2.81-1.14,2.82.25,6.1.33,8.81,1.48,2.25,1.55,4.69,6.81,4.43,11.5-1.49,5.8-6,7.08-9.42,9.59-.55.4-1.26.5-1.88.24Z"/>
                <path class="cls-2" d="M41.22,207.26c-2.56-.64-5.39-1.44-7.91-2.06-.42-.1-.74-.43-.84-.85-.54-2.3-1.05-4.66-1.58-6.97-.17-.74.41-1.44,1.17-1.4,2.06.1,4.28.32,6.43.97.24.07.45.22.59.42,2.04,2.76,3.75,5.9,3.57,8.83-.04.72-.73,1.23-1.43,1.06Z"/>
                <path class="cls-1" d="M40.11,208.46c-2.46-.8-5.04-1.57-7.47-2.38-.2-.07-.41-.04-.58.08-2.35,1.65-4.83,3.46-7.21,5.14-.41.29-.36.92.1,1.13,2.41,1.14,5.08,2.21,7.44,3.36.23.11.51.08.7-.08,2.42-1.99,4.81-4.11,7.23-6.11.4-.33.28-.97-.21-1.13Z"/>
                <path class="cls-1" d="M24.06,210.71c1.89-1.85,3.79-3.71,5.68-5.56-.12-2.93-.25-5.86-.37-8.79-1.89,2.19-3.79,4.39-5.68,6.58.12,2.59.25,5.18.37,7.77Z"/>
              </g>
            </g>
            <g>
              <g>
                <path class="cls-22" d="M38.27,259.88c.11,1.52-8.14,3.43-14.55,2.59-11.13-1.45-20.24-14.54-21.67-27-.9-7.86-.25-19.78,8.04-24.14,4.54-2.39,12.51-4.72,15.32,1.09,3.58,7.43-11.55,11.41-15.43,16.99,1.94-3.24,18.13-15.99,22.47-5.17,3.16,7.86-8.82,8.24-16.04,16.29,6.77-10.43,15.71-6.34,16.68-3.51,3.24,9.45-10.85,10.7-8.57,16.25,1.8,4.38,13.6,4.69,13.74,6.63Z"/>
                <path d="M39.98,259.76c.13,4.61-13.03,4.93-16.32,4.43-5.49-.68-10.31-3.87-13.93-7.86-8.91-9.85-12-24.44-8-37.08,1.29-3.85,4.03-7.64,7.82-9.47,4.81-2.38,11.82-4.49,16.06.09,2.29,2.45,2.56,6.38.44,8.89-4.09,5.21-10.79,6.76-15.48,11.07-.27.37-.8.52-1.15.17-.26-.26-.28-.67-.05-.94,1.27-2.05,2.92-3.43,4.69-4.94,4.43-3.39,10.58-7.66,16.44-4.9,3.6,2.03,5.67,7.4,3.06,10.94-3.06,3.67-7.78,4.64-11.6,7.07-1.85,1.07-3.58,2.34-5.09,3.84-.58.58-1.53-.24-1.02-.89,1.21-2.07,2.73-4.07,4.81-5.57,4.09-3.19,11.79-3.51,14.3,1.85,2.39,6.78-2.71,10.47-7.31,13.76-.81.64-1.41,1.36-1.46,1.71-.15,2.18,4.37,3.25,6.16,3.84,0,0,3.39.93,3.39.93,1.64.56,3.94.9,4.25,3.1h0ZM36.57,260.01c.03.4.22.62.27.68.06.06.05.04,0,.02-.1-.06-.3-.15-.52-.23-4.71-1.68-14.67-2.29-13.75-9.39,1.48-5.49,10.64-6.54,8.86-12.9-.04-1.09-2.02-2.13-3.77-2.34-4.21-.6-7.78,2.24-10.66,5.05,0,0-1.08-.83-1.09-.83.93-2.2,2.6-3.95,4.42-5.31,2.59-1.94,5.62-3.35,8.29-5.05,1.1-.75,1.98-1.37,2.36-2.47.49-2.61-1.59-5.69-4.5-5.65-3.85-.1-7.88,2.11-11.15,4.23-1.64,1.13-3.5,2.47-4.73,3.97,0,0-1.2-.78-1.2-.78,2.8-4.58,7.86-6.61,11.74-9.77,1.86-1.43,3.43-3.21,3.23-4.8-.18-1.75-1.68-3.49-3.54-3.84-3.05-.68-6.89.62-9.78,2.1-3.07,1.55-5.04,4.38-6.16,7.66-3.48,11.38-.67,24.83,7.37,33.67,5.04,5.74,11.46,7.85,18.94,6.68,1.87-.25,4.14-.66,5.61-1.5-.16.16-.25.48-.23.81h0Z"/>
              </g>
              <g>
                <path class="cls-22" d="M19.51,253.54c2.04-.68,5.01-2.96,6.55-4.46"/>
                <path d="M19.15,252.45c2.05-1.03,4.1-2.95,5.64-4.68,1.8-1.94,4.56.89,2.56,2.64-1.2.96-8.19,6.16-8.89,3.43-.16-.58.15-1.17.69-1.39h0Z"/>
              </g>
            </g>
          </g>
          <g id="left_hand">
            <path class="cls-15" d="M259.22,237.81c-2.91,5.16-5.52,7.3-7.19,7.64-9.69,1.98-26.15-11.63-24.08-20.49.36-1.54.23-3.66,5.18-6.47,5.9,13.84,17.5,17.34,26.1,19.32Z"/>
            <g>
              <path class="cls-22" d="M272.35,234.26c4.88-2.73,4.29-5.53,12.77-11.93,17.78-13.42,16.24-20.73,13.79-23.97-6.79-9-18.28,5.41-24.5,10.35-8.23,6.54,25.77-13.61,16.74-26.87-.89-1.41-2.74-1.95-4.05-2.17-7.38-1.22-15.02,10.93-21.3,15.93-.76.6-1.14.43-.43-.23,21.3-19.83,16.5-22.41,11.43-26.03-2.33-1.66-6.91-.4-7.61-.04-16.64,8.4-20.78,29.2-19.46,28.83,3.41-.94-6.25-21.53-14.63-18.12-8.71,3.54-1.71,15.44-2.28,19.91-2.66,21.19,2.72,25.59,12.5,32.37,7.85,5.44,18.34,6.82,27.02,1.97Z"/>
              <path d="M271.32,232.43c3.02-1.61,4.6-4.69,7.12-7.11,1.32-1.35,2.74-2.58,4.18-3.73,5.41-4.21,11.02-8.49,14.36-14.47,1.36-2.58,1.9-5.38.08-7.74-1.8-2.66-4.56-2.55-7.35-1.26-3.09,1.39-5.85,3.67-8.55,5.8-1.39,1.14-2.98,1.98-4.13,3.42-.62.66-1.26,1.3-1.98,1.87-.28.37-.93.24-1.23.56,0,0-.21.21-.21.21s-.08.09-.08.09c0,.01-.01.02,0,0-.02-.05.1.02-.03-.35-.28-.31-.37-.15-.35-.2,1.7-.78,3.17-2.06,4.63-3.27,5.07-4.77,15.53-15.08,12.13-22.41-.28-.47-.5-.99-.95-1.36-.85-.66-2.46-1.07-3.63-.93-1.31.16-2.77.78-4.17,1.63-4.28,2.69-8.02,6.89-11.77,10.48-1.11,1.06-2.18,2.15-3.48,3.02-.17.08-.27.17-.69.23-.45.1-1.16-.37-1.15-.92.02-.72.23-.8.52-1.17,5-4.94,10.36-9.83,13.86-15.86,1.74-3.13,1.94-5.44-1.23-7.36,0,0-1.08-.73-1.08-.73-1.67-1.16-4.27-.54-6.1.07-3.22,1.77-6.2,4.2-8.71,6.94-3.6,3.7-5.58,8.46-8.29,12.81-1.22,1.81-2.41,3.72-2.75,5.9-.07.41-.09.91-.04,1.16-.02-.01.03-.08-.25-.27-.14-.07-.3-.1-.45-.05.35-1.97-1.08-4-2.09-5.74-1.9-2.84-4.05-5.52-6.33-7.62-1.84-1.57-3.7-2.77-5.77-1.56,0,0-.4.23-.4.23,0,0-.35.26-.35.26-4.05,3.9.87,11.75.53,16.79-.47,4.11-.9,8.37-.64,12.4.24,7.15,3.3,12.21,9.2,16.25,7.64,6.37,18.62,9.06,27.62,3.98h0ZM273.37,236.09c-10.46,5.96-23.27,3.24-32.27-4.11-6.9-4.67-10.77-11.1-11.1-19.5-.27-4.24.04-8.34.51-12.44.02-.33.08-.59.05-.93-.7-5.44-3.75-11.31-1.2-16.9,1.06-2.23,3.06-3.77,5.38-4.57,7.81-2.1,13.54,6.61,15.43,12.82.46,1.91,2.34,7.19-.07,8.33-.24.1-.53.12-.76-.02-.38-.24-.38-.43-.44-.54-.23-1.16.09-2.12.21-3.21.47-3.64.59-7.62,2.61-10.84,3.58-6.57,8.79-12.54,15.54-15.96.45-.24.96-.49,1.41-.68,2.85-.86,5.92-1.27,8.68.21,2.28,1.6,5.07,3.59,5.21,6.72.21,6.9-11.79,17.01-16.61,21.69-.04.04-.1.11-.07.07-.01-.02.08-.04.07-.41,0-.26-.27-.62-.52-.71-.34-.14-.56,0-.44-.07,5.4-4.33,8.66-10.28,14.25-14.63,2.06-1.66,5.19-3.14,8.13-2.68,4.14.38,6.69,3.35,7.28,7.43.93,9.94-9.15,17.57-16.04,22.2-1.73,1.11-3.33,2.61-5.35,3.32-.09-.05-.28.18-.75-.36-.23-.66,0-.63,0-.76.99-1.34,2.36-2.15,3.62-3.21,1.07-.82,2.03-1.78,2.78-2.9,1.53-1.67,3.12-3.25,4.86-4.75,3.02-2.51,6.18-5.03,10.53-5.01,3.5.13,6.55,2.77,7.71,6,1.12,3.11.19,6.75-1.25,9.41-3.63,6.61-9.73,11.34-15.51,15.8-1.34,1.07-2.63,2.19-3.81,3.38-2.53,2.54-4.69,6.1-8.08,7.81h0Z"/>
            </g>
          </g>
        </g>
      </g>
    </g>
  </g>
</svg>