<?xml version="1.0" encoding="UTF-8"?>
<svg id="Layer_2" data-name="Layer 2" xmlns="http://www.w3.org/2000/svg" xmlns:xlink="http://www.w3.org/1999/xlink" viewBox="0 0 50.66 68.46">
  <defs>
    <style>
      .cls-1, .cls-2 {
        fill: #ddd8cf;
      }

      .cls-3 {
        fill: #df650d;
      }

      .cls-4 {
        stroke: #b34d08;
        stroke-linecap: round;
      }

      .cls-4, .cls-5, .cls-6, .cls-7, .cls-8, .cls-9, .cls-10 {
        stroke-miterlimit: 10;
      }

      .cls-4, .cls-8 {
        stroke-width: .76px;
      }

      .cls-4, .cls-11, .cls-10 {
        fill: none;
      }

      .cls-12, .cls-5, .cls-7, .cls-9 {
        fill: #fff;
      }

      .cls-5 {
        stroke: #bb0015;
        stroke-width: .13px;
      }

      .cls-6 {
        fill: #fa0032;
        stroke-width: 1.13px;
      }

      .cls-6, .cls-7, .cls-8, .cls-11, .cls-9, .cls-10 {
        stroke: #000;
      }

      .cls-7 {
        stroke-width: 1.07px;
      }

      .cls-13 {
        fill: #f66;
      }

      .cls-14 {
        fill: #f68315;
      }

      .cls-2 {
        opacity: .52;
      }

      .cls-11 {
        stroke-linejoin: round;
        stroke-width: 1.26px;
      }

      .cls-15 {
        fill: #bb0015;
        opacity: 0;
      }

      .cls-16 {
        fill: #389aa4;
      }

      .cls-17 {
        fill: #d85b08;
      }

      .cls-18 {
        fill: #ee3a2d;
      }

      .cls-9, .cls-10 {
        stroke-width: 1.1px;
      }

      .cls-19 {
        fill: #12e647;
      }

      .cls-20 {
        fill: #ffbd25;
      }

      .cls-21 {
        fill: url(#linear-gradient);
      }
    </style>
    <linearGradient id="linear-gradient" x1="29.49" y1="58.73" x2="31.66" y2="67.93" gradientUnits="userSpaceOnUse">
      <stop offset=".56" stop-color="#eca23d"/>
      <stop offset=".78" stop-color="#f7d729"/>
      <stop offset=".89" stop-color="#fcee21"/>
    </linearGradient>
  </defs>
  <g id="Layer_1-2" data-name="Layer 1">
    <g id="pizza_category">
      <g>
        <path class="cls-6" d="M31.46,20.84c-11.53-1.97-23.85,4.27-25.95,14.84-2.44,12.3,3.98,22.24,15.81,25.11,11.68,2.83,26.39-3.62,28.45-16,2.25-13.51-7.7-22.14-18.32-23.95Z"/>
        <path class="cls-15" d="M19.77,24.34c-3.28.09-4.48.86-7.3,3.11,0,0-4.76,3.81-5.56,10.41-.86,7.11,6.78,19.69,15.31,22.67-.96-.14-3.56-.86-5.56-1.84-3.53-1.7-6.83-4.04-9.38-9.07-.58-1.14-2.08-5.48-1.77-10.47.69-11.17,9.07-14.43,10.34-15.19,1.2.14,2.9-.05,4.36-.22-.21.22-.25.38-.45.6Z"/>
      </g>
      <g id="mouth">
        <path class="cls-8" d="M25.54,44.38c1.11.68,5.25,1.14,7.62-.44.33-.22.73.06.63.44-.49,1.84-2.03,4.53-4.41,4.56-1.71.02-3.25-1.03-4.31-3.98-.12-.34.17-.77.48-.59Z"/>
        <path class="cls-13" d="M29.28,48.48c-.44,0-1.54-.51-1.75-.96-.2-.41.7-.83,1.69-.84,1.27,0,2.15.43,1.96.88-.22.51-1.34.91-1.89.92Z"/>
      </g>
      <g id="cheeks">
        <path class="cls-5" d="M12.9,45.24c.07-.93,1.42-1.48,2.55-1.44,1.27.04,2.49,1.15,2.51,1.92.02.92-.84,1.51-2.41,1.45-1.66-.07-2.72-.92-2.64-1.92Z"/>
        <path class="cls-5" d="M45.19,43.64c-.07-.93-.97-1.33-2.07-1.06-1.33.32-2.28.82-2.29,1.59-.02.92.73,1.31,2.3,1.25,1.66-.07,2.13-.78,2.06-1.78Z"/>
      </g>
      <g id="eyes">
        <g>
          <g>
            <path d="M19.9,33.2c-2.71,0-4.64,3.09-4.65,5.71,0,2.61,1.88,5.15,4.41,5.26,2.76.12,5.04-2.86,4.85-5.81-.16-2.46-2.01-5.18-4.61-5.17Z"/>
            <path class="cls-12" d="M21.33,35.89c-.54-.46-1.2-.29-1.65.22-.47.53-.41,1.58.15,2.04.58.47,1.27.31,1.68-.27.36-.51.32-1.56-.19-2Z"/>
          </g>
          <g>
            <path d="M38.14,32.18c-2.71-.04-4.63,2.78-4.64,5.4,0,2.61,1.89,5.23,4.41,5.34,2.91.13,4.72-2.72,4.51-5.87-.16-2.46-2.16-4.84-4.28-4.87Z"/>
            <path class="cls-12" d="M36.82,34.81c-.71-.04-1.44.48-1.44,1.29,0,.85.56,1.34,1.29,1.36.75.02,1.36-.58,1.33-1.29-.02-.63-.5-1.32-1.18-1.36Z"/>
          </g>
        </g>
      </g>
      <g id="hat">
        <g>
          <g>
            <path class="cls-12" d="M10.25,25.85c-.42-1.22-.8-2.72-1.05-4.56-4.15.82-7.97-1.95-8.54-5.46C.03,12.06,3.25,7.95,7.84,7.88c.89-3.88,4.15-6.78,8.06-7.19,4.01-.43,9.15,1.16,9.69,5.76-3.9-3.56,4.55-6.63,7.8-2.29,1.27,1.67,2.01,4.17.96,6.5-1.41,3.14-4.87,3.57-5.03,3.59.45-.09.89-.18,1.34-.28.45,1.87,1.01,3.55.68,5.63-7.28,2.02-13.81,4.23-21.09,6.25Z"/>
            <path d="M9.98,26.36c-.16-.09-.35-.49-.38-.61-.47-1.42-.78-2.91-.98-4.39,0,0,.69.49.69.49C5.16,22.75.42,19.87.03,15.47-.37,11.1,3.58,7.3,7.83,7.3c0,0-.56.45-.56.45C8.61.97,16.65-1.89,22.46,1.31c1.82,1.03,3.73,3.12,3.19,5.37,0,0-.14-.15-.14-.15-.52-.26-.97-.7-1.18-1.32-.73-3.43,4.51-4.29,6.87-3.33,3.44,1.18,5.21,5.64,3.77,8.94-.96,2.13-3.23,3.9-5.6,3.85,0,0-.13-.84-.13-.84.25-.06,1.51-.32,1.74-.38.54,2.13,1.26,4.34.9,6.6-5.23,1.44-10.95,3.25-16.18,4.83-1.67.43-4.01,1.33-5.72,1.48h0ZM10.52,25.33c.55-.36,1.59-.62,2.21-.79,0,0,2.63-.77,2.63-.77l5.26-1.6c3.5-1.07,7.02-2.15,10.56-3.13,0,0-.42.47-.42.47.41-1.82-.09-3.64-.53-5.44,0,0,.51.32.51.32l-1.34.27-.13-.84c.23-.03.45-.28.69-.31.24-.07.48-.15.71-.24,6.08-2.29,3.68-11.64-2.82-10.66-1.3.17-3.18.86-2.86,2.4.12.44.39.87.67,1.35,0,0-.2.1-.2.1-1.24-4.06-5.08-5.49-9.04-5.21-3.98.21-7.36,3.33-8.15,7.2-6.14-.3-9.99,7.56-4.36,11.26,1.68,1.13,3.81,1.39,5.76.89.21,1.62.51,3.24,1.02,4.79.03.08,0,0-.03-.02-.04-.03-.1-.05-.15-.04h0Z"/>
          </g>
          <path d="M9.68,19.67c3.28-3.62,8.31-4.97,13-5.59,1.58-.19,3.21-.24,4.78.16v.14c-2.72.48-6.53,1.1-9.13,1.9-3.06.74-5.66,2.28-8.55,3.54,0,0-.11-.16-.11-.16h0Z"/>
        </g>
        <g>
          <path class="cls-2" d="M10.74,24.38c.93-.6,2.15-1.39,3.09-1.98-.96-.33-1.02-2.35-1.35-3.5-.93.45-1.8.95-2.74,1.4.33,1.3.67,2.79,1,4.09Z"/>
          <path class="cls-2" d="M1.91,13.64c-.47,1.98.15,4.07,1.63,5.45,1.56,1.46,4.72,1.56,5.86,1.16.11-.68.42-1.21.72-1.59,1.6-2.05,5.75-3.06,6.44-3.42-.48.09-3.27.58-5.78-1.27-1.9-1.4-2.2-2.64-2.77-4.03-.48,2.93.4,5.54,1.35,6.03-2.25,1.91-6.51,3.17-7.44-2.35Z"/>
          <path class="cls-1" d="M33.43,9.94s-1.89,2.26-4.24,2.24c-1.57-.01-2.83-.37-3.75-1.88-1.15,1.82-1.11,2.68-3.16,3.57,1.58-.17,3.24-.07,4.76-.13.23,0,.44.15.47.38s.06.47.15.72c.59.02.95.04,1.53.05-.12-.41-.28-.86-.41-1.28,4.56-1.18,4.63-3.67,4.63-3.67Z"/>
        </g>
      </g>
      <g>
        <g id="lower">
          <path class="cls-19" d="M8.95,26.79s-.04,0-.04-.02c.55-1.96,8.71-6.3,16.55-6.76,11.04-.64,18.12,2.73,17.79,3.76,0,.01-.02.02-.04.03-4.12,1.7-13.92-1.91-17.63-1.15-3.74.35-13.6,5.57-16.63,4.13Z"/>
          <path d="M8.71,27.3c.13.05.14.04.11.04-.04-.02-.03.04-.27-.13-.35-.46-.1-.75-.18-.6l.03-.07.06-.14c.24-.55.7-.97,1.12-1.35,3.25-2.53,7.21-3.95,11.17-4.92,6.82-1.38,14.11-1.02,20.64,1.51.82.35,3.31,1.54,2.14,2.63-1.35.58-2.95.61-4.37.55-4.64-.11-8.95-2.47-13.56-2.09-4.27.84-7.95,3.5-12.24,4.42-1.54.34-3.03.75-4.65.15h0ZM9.19,26.28c2.44.63,5.5-.82,7.96-1.51,2.74-.86,5.59-1.72,8.41-2.18,4.54-.43,9.17.8,13.66,1.05,1.24.06,2.46.07,3.59-.31,0,0,.09-.03.09-.03h.05s.02-.02.02-.02c0,0,.04-.02-.07.04-.16.07-.23.35-.21.3,0,.02-.01.05-.01.07-3.98-2.63-10.01-3.17-15-3.19-4.53-.02-8.97,1.03-13.09,2.88-1.8.89-3.78,1.76-5.04,3.34,0,0-.05.12-.05.12l-.03.06s-.02.03-.02.03c-.07.16.17-.12-.18-.57-.24-.16-.22-.1-.25-.12-.02,0,.02-.01.16.05h0Z"/>
        </g>
        <g id="upper">
          <path class="cls-19" d="M20.16,22.54c-4.08,2.96-6.09,7.85-5.71,8.22s10.21-2.35,10.91-7.22c3.19,4.26,12.49,6,13,5.38.45-.55-1.96-4.12-5.76-7.02"/>
          <path d="M20.18,22.57c-2.19,2.33-4.48,4.92-5.23,8.01-.03-.12-.13-.26-.27-.3,2.84-.65,6.67-2.09,8.9-4.47.65-.67,1.14-1.41,1.56-2.29,0,0,0-.47,0-.47,1.54,1.44,3.26,2.63,5.21,3.49,2.44.98,5.07,1.98,7.72,1.99.02,0,.03-.04-.09.08-.11.19-.03.13-.06.06-.2-.79-.84-1.69-1.35-2.39-1.12-1.59-2.56-3.02-3.96-4.38,2.07.55,3.4,2.23,4.71,3.78.65.9,1.26,1.64,1.58,2.79.28,1.69-2.24.95-3.19.85-3.78-.88-8.33-2.13-10.51-5.64,0,0,.4-.1.4-.1.13,1.12-.46,2.19-1.15,2.99-2.59,2.61-6.09,4.19-9.69,4.78-.2.03-.6-.04-.72-.25-.22-.25-.16-.71-.1-.92,1.06-3.08,3.33-6.31,6.26-7.61h0Z"/>
        </g>
      </g>
      <g id="item">
        <g>
          <g>
            <path class="cls-12" d="M20.78,67.67c.19.05,2.36.68,3.86-.32,1.25-.84,2.15-2.43,1.36-3.31-.7-.79-2.81-.84-3.84-.24-.31,1.45-1.08,2.42-1.38,3.87Z"/>
            <path d="M21.23,67.39c-.03-.08-.11-.16-.19-.19-.12-.05-.03-.01-.04-.02.15.04.44.09.6.12,1.54.3,3.14-.26,3.91-1.69.2-.36.29-.76.2-1-.53-.92-2.46-.78-3.28-.35,0,0,.25-.35.25-.35-.25,1.25-.91,2.24-1.27,3.41,0,0-.06.21-.06.21.01-.04-.04-.13-.13-.14h0ZM20.33,67.95c-.09-.28-.03-.65.07-.93.36-1.21,1.1-2.34,1.29-3.57,1.46-.85,4.25-.99,5.04.8.23.72,0,1.36-.26,1.87-.92,1.81-3.09,2.65-5.04,2.23-.35-.09-.86-.08-1.1-.4h0Z"/>
          </g>
          <path class="cls-7" d="M15.42,64.29c.7,1.92,2.18,3.35,3.84,3.42,3.91.16,3.67-4.9,1.66-4.92-.48,0-1.14.09-1.52.49-.4.41-.27.76-.64.99-.41.25-.81-.03-1.67-.1-.39-.04-.96-.04-1.66.13Z"/>
          <g>
            <path class="cls-12" d="M43.76,63.94c.06,1.18-2.67,3.21-4.55,3.2-1.49,0-3.08-1.68-3.11-2.86-.03-1.03.76-2.17,1.8-2.22,1.48-.06,1.69,1.24,2.08,2.25-.38-.46-.71-1.49-.02-2.05.22-.08,1.13-.11,1.8.08.78.22,1.96.9,1.99,1.59Z"/>
            <path d="M44.31,63.92c-.16,2.13-3.65,4.13-5.66,3.77-1.67-.44-3.07-1.71-3.17-3.57.05-2.67,3.82-3.86,4.57-.97.06.39.05.75-.05,1.17-.36-.2-.67-.55-.81-1.01-.78-3,5.03-1.49,5.13.6h0ZM43.21,63.97c-.46-.91-2.05-1.34-3.05-1.18,0,0,.16-.09.16-.09-.38.5-.52.73-.33,1.62-.69-.51-.97-1.19-1.3-1.46-.88-.66-1.95.37-1.94,1.32-.02.95,1.22,2.12,2.15,2.32,1.11.22,2.48-.54,3.37-1.26.36-.29.92-.86.94-1.26h0Z"/>
          </g>
          <path class="cls-9" d="M36,63.22c-.53-.3-1.59-.4-2.11.72-1.45,3.09,4.2,3.8,3.65,2.8-.23-.42-.92-.73-1.54-3.52Z"/>
        </g>
        <g>
          <path class="cls-20" d="M25.39,50.55c-.1,0-.19,0-.28-.04l-1.98-.84c-.69-.28-1.34.08-1.93.54-3.2,2.53-5.91,6.53-7.41,9.59-.05.11-.17.33-.25.65-.06.21-.24,1,.04,1.78.46,1.29,1.87,1.71,2.02,1.75l3-.16c9.28-.43,18.13-1.18,27.42-1.04,1.19.02,1.71-1.22,1.74-2,.14-2.83-7.99-7.91-11.92-9.15-.77-.31-2.15-.84-2.98-.91-2.76-.21-4.97-.42-7.47-.18Z"/>
          <path class="cls-14" d="M25.33,51.07c-2.26,4.22-4.68,8.36-6.94,12.58-3.41-.28-4.18-.09-4.44-.63-1.17-2.42,2.01-8.48,8.44-13.14.88.36,2.07.83,2.95,1.19Z"/>
          <path class="cls-17" d="M46.97,61.33c-1.72-.77-4.62-1.44-6.83-1.63-7.45-.65-18.54-.17-19.77.68-1.5,1.03-2.54,2.2-3.22,3.11,28.5-.85,29.99,0,29.82-2.16Z"/>
          <path class="cls-10" d="M25.39,50.62c-.1,0-.19,0-.28-.04l-1.98-.84c-.69-.28-1.34.08-1.93.54-3.2,2.53-5.91,6.53-7.41,9.59-.05.11-.17.33-.25.65-.06.21-.24,1,.04,1.78.46,1.29,1.87,1.71,2.02,1.75l3-.16c9.28-.43,18.13-1.18,27.42-1.04,1.19.02,1.71-1.22,1.74-2,.14-2.83-7.99-7.91-11.92-9.15-.77-.31-2.15-.84-2.98-.91-2.76-.21-4.97-.42-7.47-.18Z"/>
          <path class="cls-4" d="M24.68,51.9c-2.15,3.15-3.06,4.87-4.59,7.76"/>
          <path class="cls-18" d="M27.81,52.29c-1.3-.02-2.81.89-2.8,1.93,0,1.04.64,1.88,2.74,1.9,1.25.02,2.79-.71,2.86-1.74.07-1.05-1.44-2.08-2.8-2.1Z"/>
          <path class="cls-18" d="M37.18,54.28c-1.44-.02-3.13.97-3.12,2.12,0,1.14.72,2.05,3.06,2.08,1.39.02,3.11-.78,3.18-1.9.08-1.15-1.61-2.28-3.12-2.3Z"/>
          <path class="cls-18" d="M25.01,59.01c.79-.03,1.74-.53,1.76-1.18.03-.7-.93-.93-1.71-.95-1.01-.03-1.72.9-1.71,1.26.01.41.94.9,1.65.87Z"/>
          <path class="cls-18" d="M33.47,54.23c.62-.02,1.35-.41,1.37-.92.02-.55-.73-.73-1.33-.74-.79-.02-1.34.7-1.33.98.01.32.73.7,1.29.68Z"/>
          <path class="cls-18" d="M43.09,57.44c-1-.06-1.54.51-1.56,1.12-.03.66.82.88,1.51.9.89.03,1.52-.85,1.51-1.19-.01-.39-.83-.79-1.46-.83Z"/>
          <path class="cls-16" d="M30.11,56.96c0-.31.61-.55,1.06-.59.47-.04,1.12.13,1.15.43.03.33-.69.88-1.36.79-.39-.06-.86-.35-.85-.63Z"/>
          <path class="cls-21" d="M26.57,59.49c-.12.01-.16.16-.06.23,1.35.98,3.5,5.83,3.99,6.35.39.42.58.39.86-.07.97-1.58.94-4.12,1.57-5.72.15-.38,0-.95-.22-.94-1.89.07-4.23-.05-6.14.15Z"/>
          <path class="cls-3" d="M18.18,61.22c0-.43-.88-1.31-2.02-1.34-.77-.02-1.66.6-1.66,1.49,0,.75.82,1.3,1.74,1.34,1.21.06,1.94-1.09,1.94-1.5Z"/>
          <path class="cls-11" d="M28.11,63.22c.71,1.16,2.1,3.67,2.88,4.14.68-.77,1.79-3.53,2.02-4.54"/>
        </g>
      </g>
    </g>
  </g>
</svg>