<?xml version="1.0" encoding="UTF-8"?>
<svg id="Layer_2" data-name="Layer 2" xmlns="http://www.w3.org/2000/svg" viewBox="0 0 312.12 294.51">
  <defs>
    <style>
      .cls-1 {
        fill: #fa0032;
        stroke-width: 5.72px;
      }

      .cls-1, .cls-2, .cls-3, .cls-4, .cls-5, .cls-6, .cls-7, .cls-8, .cls-9, .cls-10, .cls-11, .cls-12, .cls-13 {
        stroke-miterlimit: 10;
      }

      .cls-1, .cls-2, .cls-3, .cls-4, .cls-5, .cls-6, .cls-7, .cls-9, .cls-10, .cls-11, .cls-13 {
        stroke: #000;
      }

      .cls-14, .cls-15 {
        opacity: .75;
      }

      .cls-2 {
        fill: #737473;
      }

      .cls-2, .cls-3 {
        stroke-width: 4.4px;
      }

      .cls-16, .cls-3 {
        fill: #373736;
      }

      .cls-4 {
        stroke-width: 5.11px;
      }

      .cls-4, .cls-5 {
        fill: none;
        stroke-linecap: round;
      }

      .cls-5 {
        stroke-width: 4.2px;
      }

      .cls-17, .cls-18, .cls-19, .cls-20, .cls-8, .cls-15, .cls-12 {
        fill: #fff;
      }

      .cls-6 {
        fill: #252324;
        stroke-width: 3.57px;
      }

      .cls-18 {
        opacity: .5;
      }

      .cls-7 {
        fill: #293439;
        stroke-width: .25px;
      }

      .cls-19 {
        opacity: 0;
      }

      .cls-21 {
        fill: #bb0015;
      }

      .cls-22 {
        fill: #262725;
      }

      .cls-23 {
        fill: #1f1f1f;
      }

      .cls-20 {
        opacity: .25;
      }

      .cls-8 {
        stroke-width: .66px;
      }

      .cls-8, .cls-12 {
        stroke: #bb0015;
      }

      .cls-9 {
        stroke-width: .67px;
      }

      .cls-24 {
        fill: #eceef0;
      }

      .cls-10 {
        stroke-width: .64px;
      }

      .cls-11 {
        fill: #3d5657;
        stroke-width: 5.51px;
      }

      .cls-12 {
        stroke-width: .67px;
      }

      .cls-13 {
        fill: #363535;
        stroke-width: 4.74px;
      }

      .cls-25 {
        fill: #12e647;
      }
    </style>
  </defs>
  <g id="Layer_1-2" data-name="Layer 1">
    <g id="results">
      <g id="themes">
        <g id="friendly">
          <g id="cap">
            <path class="cls-13" d="M61.86,116.36C29.09,144.02-2.27,170.53,2.94,181.55c5.49,11.61,38.38,16.03,52.81,12.43,13.43-18.17,24.8-33.94,38.23-52.11-12.36-7.82-20.81-16.23-32.12-25.5Z"/>
            <path class="cls-6" d="M68.64,122.01c-24.7,20.85-62.09,57.67-58.34,66.06,3.16,7.07,34.82,8.58,45.7,5.86,10.12-13.7,26.73-38.99,36.86-52.69-9.32-5.89-15.69-12.24-24.21-19.23Z"/>
          </g>
          <g id="mascot">
            <g>
              <path class="cls-1" d="M161.51,72.34c-60.57,4.12-114.96,48.28-112.45,101.09,2.93,61.44,47.64,101.28,110.9,101.09,62.43-.19,128.58-48.17,123.62-109.55-5.41-66.98-66.3-96.42-122.07-92.63Z"/>
              <path class="cls-21" d="M107.23,102.01c-16.45,4.26-21.54,9.34-32.93,23.37,0,0-19.29,23.75-15.15,56.11,4.46,34.89,58.62,85.83,105.35,90.04-4.99.46-19,.09-30.29-2.24-19.9-3.97-39.45-11.26-58.55-32.23-4.33-4.75-17.26-23.65-21.91-47.8-10.4-54.02,27.87-79.36,33.3-84.49,6.2-.73,14.56-3.64,21.74-6.15-.78,1.28-.78,2.11-1.55,3.39Z"/>
            </g>
            <g id="cheeks" class="cls-14">
              <path class="cls-8" d="M94.23,196.06c.38-4.7,7.61-7.47,13.67-7.29,6.78.2,13.34,5.81,13.42,9.7.09,4.67-4.5,7.65-12.93,7.33-8.91-.34-14.56-4.67-14.15-9.73Z"/>
              <path class="cls-12" d="M260.78,191.1c-.39-4.79-5.3-6.85-11.29-5.48-7.25,1.66-12.41,4.23-12.48,8.19-.09,4.76,3.97,6.76,12.56,6.44,9.07-.34,11.63-3.99,11.22-9.15Z"/>
            </g>
            <g id="eyes">
              <g>
                <g>
                  <path d="M130.52,144.73c-11.74.04-20.12,12.64-20.14,23.38-.03,10.7,8.14,21.08,19.09,21.55,11.98.51,21.82-11.73,21.01-23.77-.68-10.05-8.72-21.19-19.96-21.16Z"/>
                  <path class="cls-17" d="M129.66,157.81c-3.06-.17-4.89,2.04-5.1,4.81-.22,2.9,2.74,6.18,5.9,6.27,3.24.08,5.21-2.14,5.1-5.04-.1-2.57-2.98-5.88-5.9-6.04Z"/>
                </g>
                <g>
                  <path d="M219.65,140.9c-11.29-.14-19.32,10.94-19.34,21.28-.03,10.29,7.87,20.59,18.41,21.02,12.14.5,19.67-10.7,18.8-23.11-.68-9.67-8.99-19.08-17.87-19.19Z"/>
                  <path class="cls-17" d="M214,152.12c-2.95-.16-6.01,1.88-6.01,5.07,0,3.36,2.32,5.27,5.37,5.35,3.12.08,5.65-2.28,5.55-5.07-.09-2.47-2.09-5.2-4.9-5.35Z"/>
                </g>
              </g>
            </g>
            <g>
              <g>
                <path class="cls-9" d="M270.45,145.37c-.01-.7-.63-1.26-1.38-1.26-3.07,0-6.25-.06-9.54-.19-3.77-.15-7.4-.38-10.86-.67.87,8.82,1.95,16.53,2.82,25.35,4.39-.49,8.79-.99,13.18-1.48-.2-.99-1.32-7.01,2.82-11.19.78-.79,1.62-1.38,2.44-1.84.43-.24.69-.67.68-1.13-.05-2.52-.11-5.05-.16-7.57Z"/>
                <path class="cls-10" d="M92.72,161.73c1.31.4,2.99.76,4.12,2.15,1.39,1.71,2.28,3.55,3.05,4.97,3.66-5.59,4.16-10.67,2.48-11.96-1.52-1.16-7.73.29-9.65,4.83Z"/>
              </g>
              <g>
                <g>
                  <g>
                    <g>
                      <path class="cls-23" d="M173.34,170.84c0,14.34-15.23,29.17-35.79,29.17s-31.2-8.89-34.95-26.11c-3.06-14.04-3.45-25.26,36.19-26.21,36.64-.88,34.56,8.81,34.56,23.15Z"/>
                      <path d="M175.35,170.84c-.5,19-20.32,31.59-37.95,31.35-13.98.31-28.03-4.35-34.22-17.96-3.24-7.19-6.69-19.87-2.63-27.06,6.34-11.05,26.27-11.02,37.54-11.47,8.73-.08,17.43-.25,25.98,2.39,11.53,3.62,11.49,12.5,11.28,22.76h0ZM171.33,170.84c-.17-6.04,1.07-12.32-3.53-16.47-7.09-5.43-20.8-4.71-29.6-4.65-9.24.52-28.19,1.17-33.05,9.92-1.52,2.87-1.27,6.78-.49,10.76.76,3.91,1.7,7.92,3.41,11.52,5.18,11.87,17.11,15.91,29.34,15.91,15.44.42,33.34-10.35,33.92-26.99h0Z"/>
                    </g>
                    <path class="cls-20" d="M130.99,197.13c3.78.48,7.02.49,8.06-.08,6.75-13.68,16.91-32.43,23.43-44.86-2.75-.44-4.53-.89-6.98-1.53-7.45,14.54-16.94,32.04-24.5,46.47Z"/>
                    <path class="cls-20" d="M112.9,188.34c1.85,3.31,10.98,8.87,12.37,6.7,6-10.9,16.27-32.02,23.05-44.76-3.19.09-13.36.15-15.84.1-7.82,16.32-13.68,26.21-19.58,37.97Z"/>
                  </g>
                  <g>
                    <g>
                      <path class="cls-23" d="M265.92,166.44c0,14.34-15.23,29.17-35.79,29.17s-31.2-8.89-34.95-26.11c-3.06-14.04-3.45-25.26,36.19-26.21,36.64-.88,34.56,8.81,34.56,23.15Z"/>
                      <path d="M267.92,166.44c-.5,19-20.32,31.59-37.95,31.35-13.98.31-28.02-4.35-34.22-17.96-3.24-7.19-6.69-19.87-2.63-27.06,6.34-11.05,26.27-11.02,37.54-11.47,8.73-.08,17.43-.25,25.98,2.39,11.53,3.62,11.49,12.5,11.28,22.76h0ZM263.91,166.44c-.17-6.04,1.07-12.32-3.53-16.47-7.09-5.43-20.8-4.71-29.6-4.65-9.24.52-28.19,1.17-33.05,9.92-1.52,2.87-1.27,6.78-.49,10.76.76,3.91,1.7,7.92,3.41,11.52,5.18,11.87,17.11,15.91,29.34,15.91,15.44.42,33.34-10.35,33.92-26.99h0Z"/>
                    </g>
                    <path class="cls-20" d="M223.56,192.73c3.86.44,6.95.39,8.06-.08,6.75-13.68,16.91-32.43,23.43-44.86-2.75-.44-4.53-.89-6.98-1.53-7.45,14.54-16.94,32.04-24.5,46.47Z"/>
                    <path class="cls-20" d="M205.48,183.94c1.21,2.97,10.63,8.7,12.37,6.69,6-10.9,16.27-32.02,23.05-44.76-3.19.09-13.36.15-15.84.1-7.82,16.32-13.68,26.21-19.58,37.97Z"/>
                  </g>
                </g>
                <path d="M45.96,180.21c.48-1.91,1.38-4.72,2.05-6.61.8-2.07.93-4.84,3.35-5.68,4.92-1.33,9.63-3.07,14.37-5.17,8.53-3.79,17.39-7.78,26.97-8.95,0,0-3.59,1.99-3.59,1.99,1.7-1.13,2.82-1.96,3.96-2.79,11.27-8.53,37.27-10.64,51.4-10.7,11.45.31,26.72,1.47,32.66,13.08.08.19.33.66.4.86,0,0,0,0-.05-.1-1.32-2.34-4.65-2.43-6.18-.49,2.72-3.6,7.57-4.4,11.63-4.54,4.12-.32,8.96.78,12.12,3.64,0,0-5.91,1.12-5.91,1.12,14.73-25.86,51.86-17.76,75.45-11.56,4.89,1.47,3.07,8.77-2.04,7.58-16.78-4.26-37.76-9.27-54.32-2.99-5.3,2.12-9.59,5.82-12.28,10.73,0,0-2.23,4.08-2.23,4.08,0,0-3.63-2.97-3.63-2.97-1.38-1.13-2.4-1.58-4.1-1.8-2.47-.16-6.26-.26-8.3,1.16-.14.12-.33.34-.47.5-1.96,2.34-5.62,1.63-6.74-1.25-2.13-5.27-7.81-7.33-13.46-8.71-16.94-3.51-41.34-.39-57.03,6.99-1.38.76-3.83,1.74-3.75,3.41,0,0-1.59,1.54-1.59,1.54-14.39.2-27.55,7.43-41.79,9.43-.06,0-.18.02-.18.02.1-.05.18-.13.19-.23,0,0,0-.03,0-.03,0,0,0-.03,0,0l-.05.1c-1.11,2.35-3.52,6.83-4.79,9.1-.27.56-.97.79-1.52.49-.45-.25-.66-.76-.54-1.24h0Z"/>
              </g>
              <path class="cls-4" d="M170.19,153.69c8.15-.19,16.3-.38,24.46-.57"/>
            </g>
            <path id="mouth" class="cls-5" d="M168.42,206.6c1.07,1.16,6.28,5.05,15.26,5.5,9.41.47,15.58-4.12,16.64-5.12"/>
            <g>
              <g id="lower">
                <path class="cls-25" d="M70.74,102.71c-.08-.04-.23-.02-.21-.08,2.85-9.62,45.22-30.91,85.93-33.16,57.31-3.16,94.1,13.37,92.4,18.45-.02.07-.11.1-.2.13-21.39,8.34-72.28-9.38-91.55-5.62-19.41,1.73-70.62,27.33-86.37,20.27Z"/>
                <path d="M69.57,105.32c.34.15.48.16.55.18.07.01.07.01-.03,0-.2-.12-.1.19-1.35-.61-1.92-2.48-.53-3.91-.94-3.12,1.11-3.32,3.94-5.75,6.49-7.85,7.28-5.63,15.55-9.66,23.89-13.27,16.64-6.98,34.22-11.76,52.2-13.58,17.97-1.52,35.96-1.05,53.82,1.45,13.23,2.02,35.26,6.33,45.52,14.97,1.22,1.13,2.35,2.89,1.97,4.87-.1.4,0,.11-.2.68-.28.66-.7,1.02-.95,1.22-.3.25-.7.4-.88.47-4.18,1.63-8.8,2.21-13.15,2.44-15.09.64-29.92-2.59-44.47-5.98-11.41-2.43-23.12-6.07-34.86-4.4-7.41.81-14.44,3.71-21.29,6.54-6.02,2.6-14.67,6.3-20.77,8.53-11.7,4.09-33.81,12.27-45.55,7.46h0ZM71.91,100.1c10.64,4.25,39.89-7.56,52.22-10.5,10.84-2.75,21.93-6.03,32.9-7.52,5.92-1.05,11.91-.56,17.86-.21,17.59,1.15,35.44,3.97,52.79,5.28,6.79.34,13.47.52,19.67-1.66,0,0,.23-.08.23-.08.04-.01.11-.05-.06.03-.49.28-.94.55-1.31,1.39-.17.47-.19.55-.15.97.07.37.12.32.05.24-.47-.56-1.04-1.04-1.75-1.52-19.49-11.62-53.3-14.73-75.94-14.55-23.37-.14-46.52,4.87-68,13.97-9.03,4.03-18.42,8.26-25.53,15.16-.69.76-1.27,1.46-1.61,2.35-.42.83.93-.55-.94-3-1.21-.77-1.06-.45-1.22-.57-.06,0,0,0,.11.02.12.03.3.05.68.22h0Z"/>
              </g>
              <g id="upper">
                <path class="cls-25" d="M128.95,81.53c-21.17,12.89-31.61,34.2-29.66,35.84s53.02-10.24,56.66-31.48c16.58,18.55,64.88,26.17,67.49,23.45,2.31-2.4-10.19-17.94-29.93-30.62"/>
                <path d="M129.03,81.67c-10.05,8.92-23.75,21.92-27.34,34.96.03-.57-.67-1.44-1.31-1.64-.44-.15-.35-.09-.34-.11,12.09-1.61,24.08-6.16,34.99-11.44,6.19-3.15,11.74-7.03,16.21-12.21,1.41-1.66,2.62-3.43,3.66-5.51,0,0,0-1.97,0-1.97,8.04,6.46,17.07,11.38,26.73,14.96,9,3.26,18.35,5.74,27.76,7.51,4.22.66,8.63,1.57,12.83,1.14-.03.02-.14.02-.49.36-.19.21-.29.44-.33.59-.04.14-.03.21-.03.22-.29-1.52-1.35-3.02-2.27-4.41-1.33-1.89-2.77-3.79-4.34-5.59-6.24-7.4-13.66-13.72-21.27-19.76,0,0,.04-.07.04-.07,5.39.69,9.59,3.51,13.54,6.52,3.98,3.02,7.63,6.46,11,10.19,1.68,1.88,3.26,3.85,4.78,5.96,1.41,2.13,3.06,4.31,3.24,7.08.07,2.5-2,3.68-4.18,3.75-4.51.27-8.95-.45-13.35-1.12-16.32-2.88-43.89-10.04-53.41-24.47,0,0,1.85-.53,1.85-.53.77,17.71-33.02,29.26-47.13,32.59-3.31.69-6.7,1.57-10.22,1.49-.29-.04-.51,0-1.23-.27-5.11-2.39,1.11-11.36,2.92-14.39,6.86-10.2,15.97-19.48,27.52-24.1,0,0,.16.27.16.27h0Z"/>
              </g>
            </g>
            <g>
              <path d="M242.9,128.64c-7.39-2.42-15.76-4.38-22.82-.37-2.01,1.11-3.06,2.07-4.14,4.09-1,1.86-3.31,2.57-5.18,1.57-4.07-2.39-1.07-7.08,1.56-9.52,6.54-5.51,16.26-5.56,23.76-2.51,2.87,1.12,5.57,2.72,7.93,4.23,1.33.83.38,2.95-1.12,2.51h0Z"/>
              <path d="M110.89,131.44c6.08-5.13,20.61-6.25,27.46-1.98,1.44.89,2.62,2.13,3.41,3.09,2.97,3.79-2.18,8.43-5.65,5.14-1.56-1.57-2.27-2.17-4.26-2.9-3.84-1.33-8.83-2.03-13.03-2.01-2.23.04-4.43.31-6.58,1.07-1.46.51-2.54-1.44-1.35-2.41h0Z"/>
            </g>
          </g>
          <g id="hat">
            <path class="cls-3" d="M64.33,123.45s0,0-.01.02c-.05.07-.22.29-.48.36-.92.25-2.14-1.44-2.47-2.73-3.28-12.68-12.53-50.17,1.53-70.82C86.4,15.74,155.38-7.53,198.71,16.64c12.53,6.99,20.86,17.5,20.86,17.5,13.04,16.3,15.19,33.82,15.57,42.81.03.83-.74,1.45-1.54,1.24-5.41-1.39-10.7-2.66-16.18-2.69-.84,0-1.53-.7-1.55-1.54-.95-32.45-19.11-38.63-35.16-36.14-19.5,3-19.91,16.28-16.26,38.26.13.78-.65.94-1.44,1-60.45,4.88-98.57,46.2-98.68,46.37Z"/>
            <path class="cls-22" d="M73.43,41.87c-6.52,12.78-19,38.12-6.74,65.2.24.53.85.7,1.33.39,28.95-18.44,54.12-32.95,93.11-33.4-54.07,6.37-83.04,32.98-97.43,45.94-1.67-7.61-5.37-20.58-5.44-35.44-.04-9.55.53-19.24,4.33-28,3.39-7.82,8.44-12.16,10.78-14.72.03-.03.07,0,.05.04Z"/>
            <path d="M117.95,13.09c-3.69,5.94-7.73,11.42-10.14,18-6.08,16.09-6.93,34.29-2.94,50.99.85,3.19,1.66,6.55,3.48,9.31,0,0-1.5,1.68-1.5,1.68-2.75-2.83-3.76-6.6-4.85-10.22-5.06-20.69-3.46-44.12,7.97-62.47,1.92-3.04,4.26-5.89,7.5-7.73l.48.44h0Z"/>
            <path class="cls-2" d="M110.48,15.12c7.77-3.49,16.95-5.82,24.99-7.29-3.86-4.43-10.82-6.95-16.1-4.9-4.61,1.8-8.31,7.16-8.89,12.19Z"/>
            <path d="M142.62,9.37c17.19-2.85,34.55,8.77,42.22,23.76.45,1.06.85,2.14,1.15,3.24l-.87.47c-.8-.82-1.49-1.69-2.17-2.56-.65-.75-1.44-1.81-2.05-2.57-6.45-8.59-15.07-15.92-25.42-19.23-4.11-1.34-8.39-2.11-12.85-2.57,0,0-.02-.54-.02-.54h0Z"/>
            <path class="cls-18" d="M230.36,67.01c-1.09-6.25-6.56-22.89-19.46-36.53-16.29-17.23-34.52-18.86-40.28-19.54-.79,1.1-2.5-.59-3.29.51,27.56,4.94,51.24,23.28,58.58,51.07.54,2.05,1.49,3.8,3.55,4.28.24.06.53.13.89.21Z"/>
            <g>
              <g>
                <path class="cls-16" d="M163.53,64.99c-.01,3.63.26,7.32.71,10.92.15,1.23-2.33,2.47,2.18,1.63,14.25-2.67,26.89-2.69,44.41-.68,2.48.29,4.96-.75,6.09-2.84.74-1.38,1.16-2.72,1.03-4.3-.18-2.25-1.62-5.73-3.49-7.2-1.25-.98-2.86-1.31-4.49-1.42-19.14-1.34-31.42-1.51-45.25,1.35-.92.19-1.18,1.65-1.18,2.54Z"/>
                <path d="M164.84,64.99c-.02,3.38.23,6.85.63,10.22.06.32.09.73.07,1.08-.06.58-.34,1.07-.58,1.52-.01-.02.08-.07.02-.49-.04-.3-.28-.59-.53-.73-.05-.03-.12-.05-.13-.06-.21-.06-.06-.02.03-.03.51,0,2.33-.35,2.88-.44,13.78-2.59,27.95-2.29,41.83-.72.94.09,2.77.4,3.72.13,2.35-.41,3.62-2.59,3.83-4.79.11-2.18-1.05-4.98-2.49-6.63-1.67-1.83-4.46-1.55-6.89-1.79-14.04-.95-28.3-1.47-42.13,1.46,0,0-.12.02-.12.02.02,0,.03,0,.05-.01.05,0,.14-.11.08-.03-.13.17-.27.8-.27,1.29h0ZM162.21,64.98c-.04-1.35.57-3.6,2.36-3.85,12.7-2.7,25.79-2.58,38.67-1.8,0,0,4.16.26,4.16.26,2.1.18,4.53.09,6.62,1.1,2.22,1.04,3.6,3.41,4.41,5.53,1.24,2.87,1.14,6.54-.85,9.19-1.58,2.13-4.21,3.01-6.72,2.78,0,0-2.09-.23-2.09-.23-2.74-.3-5.49-.56-8.24-.76-10.97-.85-22-.57-32.84,1.43-.78.12-2.47.48-3.28.48-1.31.11-2.44-.88-1.9-2.27.16-.43.32-.58.41-.85.01-.06,0,.04,0,.04-.45-3.65-.73-7.37-.72-11.06h0Z"/>
              </g>
              <ellipse cx="171.04" cy="69.07" rx="2.26" ry="2.12"/>
              <ellipse cx="180.28" cy="68.31" rx="2" ry="1.87"/>
              <ellipse cx="189.7" cy="67.93" rx="2.16" ry="2.02"/>
              <ellipse cx="198.92" cy="67.78" rx="2.11" ry="1.97"/>
              <ellipse cx="208.46" cy="68.21" rx="1.95" ry="1.82"/>
            </g>
          </g>
          <ellipse class="cls-19" cx="248.61" cy="268.73" rx="51.56" ry="25.78"/>
          <g id="left_hand">
            <g id="phone">
              <path class="cls-11" d="M255.14,196.91c-10.68,25.97-20.08,43.89-30.88,69.9-1.47,3.54,1.15,7.44,4.99,7.44l46.88-.59c2.22,0,4.36-1.32,5.02-3.45,7.57-24.4,13.49-44,27.68-69.99,1.82-3.33-1.24-7.34-5.04-7.34-15.84,0-27.8.49-43.76.69-2.15.03-4.07,1.35-4.89,3.34Z"/>
              <path class="cls-7" d="M229.16,271.6c9.74-23.24,21.57-46.11,31.79-70.22.29-.69.96-1.15,1.71-1.17,14.6-.42,35.07.14,43.67-1.66-8.96,23.7-18.04,47.71-26.61,70.87-.31.83-1.11,1.4-1.99,1.42-17.04.31-31.45.48-48.56.77Z"/>
              <path class="cls-15" d="M261.9,198.43c.99.81,1.37,1.83.83,2.29s-1.77.17-2.77-.63c-.99-.81-1.37-1.83-.83-2.29s1.77-.17,2.77.63Z"/>
              <path d="M262.97,211.31c-.09,3.14,1.91,5.36,4.41,5.2s4.76-2.57,5.25-5.61c.53-3.31-1.26-6.2-4.12-6.16-2.93.04-5.45,3.12-5.54,6.56Z"/>
            </g>
            <g>
              <g id="hand">
                <path class="cls-17" d="M299.59,233.59c8.61,6.54,7.78,21.2,1.72,31.01-24.43,39.61-48.85,18.13-49.04,9.68-.09-3.92,6.7,3.36,13.79,4.91.14.03.18-.19.05-.25-18.71-7.99-11.36-16.23-8.61-19.03,4.55-4.63,3.52,5.06,22.37,5.39.17,0,.33-.26.16-.29-21.21-4.74-25.58-14.66-16.62-22.36,3.26-2.8,21.06,3.86,27.76,8.56.35.24.47-.13.46-.55-.22-5.9-31.62-4.57-18.85-20.63,3.43-4.32,18.07-3.08,26.81,3.56Z"/>
                <path d="M301.8,230.69c16.24,16.39-2.86,50.79-21.63,57.33-7.86,3.1-17.3,1.63-23.81-3.8-2.94-2.33-6.52-7.22-5.25-11.24,1.89-3.33,6.25,1.42,8.3,2.46,2.04,1.37,4.2,2.6,6.61,3.13,0,0,.14.03.14.03.01,0,.09.01-.04,0-.4-.04-.67.54-.37.78-2.5-1-6.75-2.74-9.59-4.64-6.74-4.38-6.22-12.16-.2-16.97,1.51-1.43,4.2-2.07,5.97-.7,1.08.77,1.89,1.66,2.83,2.42,1.06.99,2.35,1.61,3.69,2.12,3.48,1.7,7.4,2.76,11.3,3.03,0,0,.14.01.14.01-.62.05-.43.89,0,.97-.28-.08-.78-.2-1.06-.27-4.59-1.32-9.58-1.3-13.77-3.9-8.81-4.61-10.91-13.5-2.88-20.2.69-.62,1.78-.97,2.58-1.06,3.65-.31,6.6.6,9.9,1.55,6.01,2.01,12.07,4.33,16.81,8.66,0,0,.11.1.11.1.03.03.1.08.06.06-.16-.05-.45-.04-.6.11-.17.19-.1.2-.1.18.13-2.45-4.62-2.19-6.31-2.74-2.96-.76-6.03-1.41-9.13-2.55-8.75-3-10.45-9.75-4.94-16.95.32-.45.76-.95,1.17-1.29,7.39-5.68,23.2-2.04,30.09,3.35h0ZM298.32,235.27c-4.5-3.39-10.37-5.34-16.1-5.74-2.6-.1-6.08-.08-7.91,1.69-4.2,5.16-3.48,8.22,2.66,10.84,4.06,1.91,9.05,2.58,12.78,5.53,1.03.73,2.49,1.59,2.58,3.1.12,1.14-.79,1.73-1.81,1.06-5.54-2.36-11.15-4.76-16.95-6.47-2.78-.7-6.17-1.86-8.88-1.22-8.33,7.06-1.07,12.85,6.03,16.45,2.9,1.82,6,3.33,9.43,3.87.98.19.64,1.6-.3,1.57-4.25.08-8.58.2-12.7-1.18-2.27-.87-4.44-2.28-6.36-3.69-.57-.43-1.17-.69-1.1-.61-4.37,3.51-6.26,8.03-1.94,12.49,2.3,2.48,5.39,4.25,8.52,5.55.54.17.5,1.13-.19,1.13-2.58-.51-5.11-1.65-7.5-2.79-1.69-.75-4.09-2.25-5.42-2.4.19,0,.46-.27.49-.35.05-.09.04-.03.06.06.21,1.52,1.1,2.9,2.16,4.17,2.63,3.26,6.19,5.93,10.31,6.94,11.98,2.95,21.84-6.96,28.83-15.44,2.76-3.46,5.76-7.06,7.31-11.16,3.04-7.64,2.75-17.97-4.02-23.41h0Z"/>
              </g>
              <path class="cls-24" d="M257.82,263.14c-2.03,3.14.59,6.65,3.57,10.47,4.19,5.37,20.32,6.98,26.53,3.12-6.21,3.86-7.61,8.58-19.13,7.99-9.05-.47-9.72-5.16-13.31-7.25,8.57,2.16,11.85,2.94,12.06,2.39.5-1.32-16.51-6.2-9.72-16.71Z"/>
            </g>
          </g>
        </g>
      </g>
    </g>
  </g>
</svg>