<?xml version="1.0" encoding="UTF-8"?>
<svg id="Layer_2" data-name="Layer 2" xmlns="http://www.w3.org/2000/svg" viewBox="0 0 201.53 278.29">
  <defs>
    <style>
      .CHESAMRedd {
        fill: #3d5657;
        stroke-width: 4.44px;
      }

      .CHESAMRedd, .QWEpoi, .qzzlk1, .sda-azQ, .ariA1a, .Aqoikxz1, .dasMNbvz {
        stroke-miterlimit: 10;
      }

      .CHESAMRedd, .QWEpoi, .qzzlk1, .sda-azQ, .ariA1a, .dasMNbvz {
        stroke: #000;
      }

      .QWEpoi {
        stroke-width: 3px;
      }

      .POi0981A {
        fill: #cbd1d4;
      }

      .QAZ123-1, .sda-azQ, .Aqoikxz1, .MANNkhoda {
        fill: #fff;
      }

      .clasccceKhoda1 {
        fill: #f66;
      }

      .KhodeshHksz {
        fill: #bb0015;
      }

      .sda-azQ {
        stroke-width: 5px;
      }

      .ariA1a {
        fill: #fa0032;
        stroke-width: 4.5px;
      }

      .Aqoikxz1 {
        stroke: #bb0015;
        stroke-width: .5px;
      }

      .MANNkhoda {
        opacity: .75;
      }

      .oqasklioAz12 {
        fill: #eceef0;
      }

      .jdslahjdjklhnxac {
        fill: #12e647;
      }

      .jlksuanzzq {
        fill: #cad0d7;
      }

      .dasMNbvz {
        fill: #293439;
        stroke-width: .2px;
      }
    </style>
  </defs>
  <g id="Layer_1-2" data-name="Layer 1">
    <g id="login_mascot">
      <g id="hat">
        <g>
          <path class="QAZ123-1" d="M39.27,87.66c1.79,0,3.82-.01,5.61,0,1.03-4.97,1.94-10.79.44-15.5-.42,2.72-6.11,1.42-7.82,5.19-.98,2.16.8,8.18,1.78,10.32Z"/>
          <path class="QAZ123-1" d="M125.55,81.82c1.04,0,2.22,0,3.27,0,.6-2.89,1.13-6.29.26-9.03-.24,1.58-3.56.82-4.56,3.03-.57,1.26.46,4.77,1.03,6.01Z"/>
        </g>
        <g>
          <path class="sda-azQ" d="M131.18,76.4c17.35-4.05,29.82-23.38,25.13-39.47-4.37-15-19.56-25.04-36.89-20.15-1.5-1.78-8.91-14.28-29.8-14.28s-31.48,14.83-32.42,16.2c-1.79-.66-18.66-8.1-33.78,3.11-1.87,1.39-9.35,9.38-12.15,18.07-6.64,20.65,10.63,44.58,27.96,43.25"/>
          <path class="sda-azQ" d="M41.86,108.69c-1.11-12.21-2.19-17.45.3-20.63,12.67-16.15,78.55-15.11,86.45-5.9,1.54,1.8,1.55,5.49,1.25,19.72l-88,6.81Z"/>
        </g>
        <g>
          <path d="M44.38,76.06c-3.03,2.48-4.79,6.53-3.85,10.16.31,1.02.89,1.74,1.57,2.13l-3.54,3.54c-4.4-5.57.13-13.66,5.82-15.82h0Z"/>
          <path d="M128.64,68.94c1.86,4.94,5.66,10.92,2.55,16.14,0,0-3.79-3.26-3.79-3.26.4-.13.92-.95,1.17-1.97.92-3.44.03-7.48.07-10.91h0Z"/>
        </g>
        <g id="shadows">
          <path class="jlksuanzzq" d="M15.16,50.1c-2.91,22.42,18.87,29.15,21.58,29.75.49.11,3.49-2.86,4.66-4.14.09-.09.03-.25-.1-.26-13.68-.91-24.79-14.05-26.14-25.35Z"/>
          <path class="jlksuanzzq" d="M40.8,84.81c1.56-1.18,4.31-3.68,5.88-4.87-.98-.85-1.02-1.67-2-2.52-2.64,1.75-4.56,5.12-3.88,7.38Z"/>
          <path class="jlksuanzzq" d="M44.3,90.24c2.26-1.61,4.52-3.22,6.78-4.83.06,3.61.31,14.35.37,17.96-2.2.85-4.41,1.37-6.61,2.22-.11-2.85-.42-12.5-.53-15.35Z"/>
          <path class="jlksuanzzq" d="M125.74,83.42c-.89-.48-1.89-1.19-2.68-1.44,1.2,2.6,1.66,13.27.99,16.6.75,0,2.15-.03,2.9-.04-.02-2.19-.27-10.22-.34-13.69-.01-.6-.34-1.15-.87-1.44Z"/>
          <path class="jlksuanzzq" d="M129.14,69.1c.7,1.25,1.52,2.65,2.22,3.9,3.86-1.25,8.28-2.92,10.96-5.82-2.05.79-4.8,1.59-8.11,1.89-1.89.17-3.6.15-5.07.04Z"/>
        </g>
        <g>
          <path class="qzzlk1" d="M124.24,29.67c-2.44,10.59-4.48,21-6.93,31.59,5.37,1.33,10.44,2.37,15.81,3.7.56-1.89,1-3.52,1.56-5.41-3.11-.7-6.22-1.41-9.33-2.11.48-2.22.96-4.44,1.44-6.67,2.89.63,5.78,1.26,8.67,1.89.52-1.96,1.04-3.93,1.56-5.89l-8.56-2.11,1.33-7.56c3,.78,6.22,1.67,9.22,2.44.56-1.96.78-3.63,1.33-5.59-5.41-1.37-10.7-2.93-16.11-4.3Z"/>
          <path class="qzzlk1" d="M111.22,27.24c2.48.48,4.69,1.13,7.17,1.61-2.19,33.08-5.31,31.45-10.87,31.71-9.12.43-9-8.48-8.46-13.38.05-.46,3.17,0,5.81.46,0,1.91-.06,3.83-.06,5.74.26,3.07,4.06,2.02,4.18.61.39-4.81,1.73-12.84,2.23-26.76Z"/>
          <g>
            <path d="M83.83,25.55c-6.88.18-10.8,5.88-10.54,17.23.24,10.01,3.97,17.53,11.9,17.72,10.52.25,12.54-8.64,12.35-18.4-.23-11.5-6.58-16.74-13.71-16.55Z"/>
            <path class="QAZ123-1" d="M84.65,32.17c-3.47.09-3.99,4.9-3.85,10.63.12,5.05.71,11.52,4.7,11.59,4.37.07,4.36-6.63,4.26-11.56-.11-5.81-1.52-10.76-5.11-10.67Z"/>
          </g>
          <g>
            <path d="M55.55,29.98c-6.72,1.25-9.68,7.46-7.64,18.57,1.79,9.8,6.63,16.6,14.43,15.55,10.35-1.39,10.95-10.44,9.24-20-2.02-11.26-9.07-15.42-16.03-14.12Z"/>
            <path class="QAZ123-1" d="M57.31,36.06c-3.45.64-3.21,5.53-2.16,11.24.92,5.04,2.54,11.41,6.55,10.84,4.38-.62,3.3-7.32,2.42-12.23-1.04-5.79-3.23-10.52-6.81-9.85Z"/>
          </g>
          <path class="qzzlk1" d="M37.35,64.78c-2.87.96-6.87-4.64-8.72-9.26-2.69-5.04-2.43-19.59,5.81-8.63,2.2-.87,4.02-1.83,6.22-2.7-3.72-6.11-7.46-8.46-15.3-4.96-7.56,3.38-4.94,18-.11,24.94,5.32,7.65,12.44,9.17,18.89,2.56.28-.29,1.09,1.6,1.15,1.78,1.81-.81,3.24-2.09,5.06-2.91-2.37-5.41-5.11-11.3-7.48-16.7-3.04,1.43-6.07,2.85-9.11,4.28.26.76,1.98,4.41,2.24,5.17.33-.11.86-.29,1.52-.56,1.15-.46,1.36-.63,1.52-.56.37.18,3.41,6.52-1.69,7.56Z"/>
        </g>
      </g>
      <g>
        <path class="ariA1a" d="M88.24,96.26C41.96,99.59.39,135.32,2.31,178.03c2.24,49.71,36.4,81.93,84.74,81.78,47.71-.15,98.25-38.97,94.46-88.62-4.14-54.18-50.66-78-93.28-74.94Z"/>
        <path class="KhodeshHksz" d="M46.76,120.26c-12.57,3.44-16.46,7.56-25.16,18.9,0,0-14.74,19.21-11.58,45.39,3.41,28.22,44.8,69.43,80.5,72.84-3.81.37-14.52.07-23.15-1.81-15.2-3.22-30.14-9.11-44.74-26.07-3.31-3.84-13.19-19.13-16.74-38.67-7.94-43.7,21.3-64.2,25.44-68.35,4.74-.59,11.13-2.95,16.61-4.97-.59,1.04-.59,1.7-1.19,2.74Z"/>
      </g>
      <g id="mouth">
        <path class="QWEpoi" d="M85.45,187.86c9.99-.19,18.91-.34,28.67-.62,1.55-.04,2.84,1.18,2.88,2.74.34,12.02-9.11,20.59-16.88,21.26-8.6.74-16.93-7.59-17.26-20.74-.04-1.43,1.16-2.61,2.59-2.64Z"/>
        <path class="clasccceKhoda1" d="M98.22,210.24c-6.3-.26-11.71-6.09-11.13-9.06s5.62-2.78,7.04-2.84c7.82-.37,13.57,3.96,13.48,7.22-.07,2.51-5.33,4.85-9.38,4.68Z"/>
      </g>
      <g id="cheeks">
        <path class="Aqoikxz1" d="M36.13,189.16c.28-3.69,5.64-5.86,10.13-5.72,5.02.16,9.89,4.56,9.94,7.61.07,3.67-3.33,6-9.58,5.75-6.61-.26-10.79-3.66-10.49-7.64Z"/>
        <path class="Aqoikxz1" d="M160.24,183.92c-.28-3.69-3.86-5.28-8.22-4.22-5.28,1.28-9.03,3.26-9.09,6.31-.07,3.67,2.89,5.21,9.14,4.96,6.61-.26,8.47-3.08,8.17-7.06Z"/>
      </g>
      <g id="eyes">
        <g>
          <g>
            <path d="M65.74,141.84c-10.75.04-18.42,12.25-18.44,22.67-.02,10.37,7.46,20.44,17.48,20.89,10.97.5,19.98-11.37,19.24-23.05-.62-9.75-7.98-20.55-18.28-20.51Z"/>
            <path class="QAZ123-1" d="M64.94,154.53c-2.8-.16-4.48,1.98-4.67,4.67-.2,2.81,2.51,5.99,5.41,6.07,2.97.08,4.77-2.07,4.67-4.89-.09-2.49-2.73-5.7-5.41-5.85Z"/>
          </g>
          <g>
            <path d="M132.8,139.73c-10.75-.14-18.38,11.02-18.41,21.44-.02,10.37,7.49,20.74,17.52,21.18,11.56.5,18.72-10.78,17.89-23.28-.65-9.74-8.56-19.22-17-19.33Z"/>
            <path class="QAZ123-1" d="M127.43,151.03c-2.8-.16-5.72,1.89-5.72,5.11,0,3.39,2.21,5.31,5.11,5.39,2.97.08,5.38-2.29,5.28-5.11-.09-2.49-1.99-5.23-4.67-5.39Z"/>
          </g>
        </g>
      </g>
      <g>
        <g id="lower">
          <path class="jdslahjdjklhnxac" d="M18.88,120.83c-.06-.03-.17-.02-.16-.07,2.18-7.79,34.56-25.01,65.66-26.82,43.8-2.56,71.91,10.81,70.61,14.93-.02.05-.08.08-.15.11-16.35,6.74-55.23-7.59-69.96-4.54-14.83,1.4-53.97,22.11-66,16.4Z"/>
          <path d="M17.91,122.86c.28.13.39.14.45.15.06.01.06.01-.02,0-.15-.1-.1.15-1.09-.52-1.4-1.84-.41-2.98-.7-2.38.81-2.54,2.87-4.51,4.79-6.18,12.87-10.07,28.62-15.69,44.33-19.53,18.04-4.08,36.83-3.73,55.07-1.19,8.37,1.19,32.87,6.34,36.35,14.27.46,1.33.03,3.02-1.34,3.54-.8.31-1.89.71-2.73.91-13.93,3.15-28-.6-41.38-3.68-8.72-1.97-17.74-4.86-26.73-3.55-5.68.68-11.04,2.99-16.25,5.27-4.6,2.08-11.15,5.06-15.81,6.85-9.21,3.32-25.6,9.94-34.96,6.04h0ZM19.84,118.8c2.14.9,4.85.85,7.26.58,5.46-.65,10.91-2.32,16.21-3.95,8.18-2.56,16.32-5.34,24.66-7.46,7.82-1.97,15.63-4.45,23.71-4.31,11.38.35,22.75,1.95,34.01,3.3,6.66.81,13.26,1.65,19.91,1.48,2.94-.13,5.71-.53,8.39-1.54-.03.03-.16.02-.6.41-.41.38-.72,1.1-.57,1.57.08.15-.13-.21-.41-.46-.29-.28-.66-.58-1.05-.87-18.27-11.1-50.42-12.93-71.5-10.96-13.3,1.45-26.36,5.27-38.56,10.73-7,3.38-14.48,6.83-19.65,12.72-.33.42-.58.85-.76,1.32-.29.63.67-.46-.7-2.28-.95-.64-.87-.39-.99-.48-.05,0,0,0,.08.02.1.02.25.05.56.19h0Z"/>
        </g>
        <g id="upper">
          <path class="jdslahjdjklhnxac" d="M63.36,103.98c-16.18,11.73-24.16,31.13-22.66,32.63s40.52-9.32,43.3-28.66c12.67,16.89,49.57,23.82,51.57,21.35,1.77-2.19-7.79-16.33-22.87-27.87"/>
          <path d="M63.43,104.08c-5.63,5.72-10.57,11.7-14.78,18.26-2.51,4.22-5.25,8.91-5.99,13.55-.02-.05.01-.21-.3-.66-.04-.05-.09-.1-.13-.15-.15-.18-.44-.34-.64-.43,8-1.63,18.77-5.84,26.55-10.7,6.48-3.97,11.78-9.23,14.98-16.14,0,0,0-1.79,0-1.79,8.88,8.4,19.77,14.36,31.49,17.81,6.25,1.93,12.84,3.9,19.38,3.92.18-.01.35-.04.44-.06.04,0,.07-.02.03,0-.04.03-.16.05-.41.33-.29.37-.23.54-.23.52-.02-.76-.44-1.64-.86-2.55-1.27-2.52-2.84-4.9-4.52-7.22-4.51-6.3-9.97-11.97-15.76-17.33,4.21.71,7.58,3.43,10.52,6.07,5.25,4.78,9.85,10.37,13.22,16.68,2.91,5.69,1.06,8.19-5.35,7.48-14.7-1.58-36.87-8.52-46.17-20.56-.58-.86-1.17-1.71-1.62-2.64l1.59-.41c.75,8.97-7.55,15.46-14.21,19.88-7.85,4.92-16.45,8.49-25.49,10.48-2.23.41-6.27,1.44-6.75-1.89-.19-1.98.61-3.69,1.23-5.39,1.61-3.9,3.67-7.42,5.96-10.81,4.52-6.75,10.41-12.81,17.68-16.48,0,0,.15.21.15.21h0Z"/>
        </g>
      </g>
      <g id="right_hand">
        <g>
          <path class="QAZ123-1" d="M91.09,237.83c-14.3-3.04-20.3,6.59-20.59,16.52-.24,8.09,5.62,20.52,16.3,17.11l4.3-33.63Z"/>
          <path d="M89.46,238.99c-.12.21-.11.43-.06.51,0,.04.08.07.02.05-.69-.1-1.4-.19-2.09-.23-21.65-1.68-17.31,35.28-1.07,30.45,0,0-1.22,1.46-1.22,1.46,1.12-9.38,3.05-22.78,4.42-32.25h0ZM92.72,236.68c-1.23,10.79-2.85,25.54-4.32,36.15-3,1.07-6.44,1.46-9.46.16-12.54-5.79-13.97-26.52-3.1-34.64,3.96-2.94,9.02-3.55,13.74-2.81,1.05.09,2.31.55,3.15,1.14h0Z"/>
        </g>
        <g>
          <path class="QAZ123-1" d="M83.72,249.5c3.81-14.91,34.15-27.68,45.89-23.44,8.88,3.2,6.65,11.78-1.12,14.76s-12.77.35-17.44-1.32c28.22,8.22,8.39,28.25,7.18,28.78-.97.42.19-12.07-10.78-16.67,24.65,26.76-9.35,27.09-8.62,22.72.06-.37,1.7.74,5.62-4.56-15.58,15.04-24.13-6.97-20.73-20.28Z"/>
          <path d="M82.26,249.13c3.32-11.43,16.8-18.82,27.25-22.73,8.11-2.73,20.97-6.03,26.71,2.56,1.98,3.29.63,7.79-1.88,10.19-3.18,3.22-7.49,4.52-11.88,4.83-4.35.29-8.56-1.48-12.13-3.59-1.23-.72-.23-2.59,1.05-1.97,2.74-.19,5.24.81,7.64,2.04,5.06,2.38,9.71,7.56,9.18,13.6-.56,6.31-4.2,11.6-8.82,15.58-.84.67-2.17.48-2.75-.44-.38-.64-.38-.97-.49-1.57-.57-6.25-2.99-12.48-8.91-15.46,0,0,.66-.94.66-.94,2.81,3.04,5.65,6.06,8.02,9.72,4.9,7.12,2.11,14.95-6.44,16.85-3.7.72-8.03,1-11.27-1.37-1.3-1.08-1.23-3.53.72-3.66,1.93-.23,3.55-2.07,5.23-3.2,0,0,.57.5.57.5-2.09,3.18-5.18,5.82-9.17,6.39-12.85.85-15.78-17.84-13.28-27.32h0ZM85.17,249.87c-2.06,7.07.8,23.45,10.06,23.27,3.17-.18,6.12-2.02,8.95-3.64.21-.16.5-.22.65.04.09.16.05.35-.08.46-.37,1.02-.88,1.97-1.52,2.88-.84,1.17-2.25,2.58-3.95,2.81-.04,0-.14.04.11-.02.04,0,.59-.22.8-.73.06-.12.09-.25.11-.37.01-.06.02-.13.01-.2-.03-.25-.13-.32-.07-.29.04.02.16.08.31.14,2.4.73,5.47.36,7.91-.29,11.65-2.86,3.86-16.3-1.45-21.91-.5-.45.06-1.24.66-.95,7.12,2.08,10.78,9.01,11.82,15.93,0,0,.09.37.09.37.01.05.03.09.03.09-.09-.33-.53-.73-.96-.85-.8-.23-1.29.15-1.31.15,0,0,.26-.23.27-.25,4.4-4.6,9.06-12.43,4.6-18.32-2.75-3.84-7.63-4.83-11.49-7.6-.02,0,.7-2.17.7-2.17,3.75.74,7.12,2.11,10.86,1.9,3.29-.21,7.08-1.3,9.4-3.71,4.26-4.45.36-8.62-4.67-9.37-13.12-1.79-37.93,9.25-41.85,22.63h0Z"/>
        </g>
        <g id="shadows-2" data-name="shadows">
          <path class="POi0981A" d="M81.05,258.41c.25,4.61,1.58,9.57,2.85,11.11-4.32.41-7.91-3.26-9.67-7.28,4.25-.36,4.84-1.08,6.81-3.83Z"/>
          <path class="POi0981A" d="M85.02,254.37c1.04,15.11,10.73,13.97,20.58,13.01-4.86,3.66-8.53,6.6-12.8,5.1-5.06-1.78-7.5-8.17-7.78-18.11Z"/>
          <path class="POi0981A" d="M102.93,274.1c4.81.07,8.06-.54,11.06-5.22-3.16,1.44-5.47.07-8.06-.28-.34,2.83-2.06,4.35-3,5.5Z"/>
          <path class="POi0981A" d="M122.51,257.63c-.9,1.89-1.96,3.89-2.96,5.72-.47-.7-2.13-11.19-12.61-12.99,6.6-1.65,12.41,7.95,15.42,7.11.1-.03.2.06.15.16Z"/>
          <path class="POi0981A" d="M111.34,237.3c3.52-.15,16.74-.44,21-6.7,1.48,1.93.61,6.1-6.06,8.67-.72.28-3.06.72-4.44.67-5.16-.21-5.28-1.24-10.5-2.63Z"/>
        </g>
      </g>
      <g id="phone">
        <path class="CHESAMRedd" d="M155.55,197.15c-8.62,20.95-16.2,35.41-24.91,56.4-1.19,2.86.93,6,4.02,6l37.83-.48c1.79,0,3.52-1.07,4.05-2.78,6.11-19.69,10.88-35.5,22.33-56.47,1.47-2.69-1-5.92-4.06-5.92-12.78,0-22.43.39-35.31.55-1.74.02-3.28,1.09-3.94,2.69Z"/>
        <path class="dasMNbvz" d="M134.59,257.41c7.86-18.75,17.4-37.2,25.65-56.66.24-.56.78-.93,1.38-.95,11.78-.34,28.3.11,35.23-1.34-7.23,19.13-14.56,38.49-21.47,57.18-.25.67-.89,1.13-1.61,1.14-13.75.25-25.38.38-39.19.62Z"/>
        <path class="MANNkhoda" d="M161.01,198.38c.8.65,1.1,1.48.67,1.84s-1.43.14-2.23-.51-1.1-1.48-.67-1.84,1.43-.14,2.23.51Z"/>
        <path d="M161.52,210.33c-.09,2.52,1.86,4.3,4.3,4.17s4.63-2.06,5.11-4.5c.52-2.66-1.23-4.97-4.01-4.94s-5.3,2.5-5.4,5.26Z"/>
      </g>
      <g id="left_hand">
        <g id="hand">
          <path class="QAZ123-1" d="M191.42,226.74c6.94,5.28,6.27,17.11,1.39,25.02-19.71,31.96-39.42,14.63-39.57,7.81-.07-3.17,5.4,2.71,11.13,3.96.12.03.15-.15.04-.2-15.09-6.44-9.17-13.09-6.94-15.35,3.67-3.73,2.84,4.08,18.05,4.35.13,0,.26-.21.13-.24-17.11-3.83-20.64-11.83-13.41-18.04,2.63-2.26,16.99,3.12,22.4,6.91.28.2.38-.1.37-.44-.18-4.76-25.51-3.69-15.21-16.65,2.77-3.49,14.58-2.49,21.63,2.87Z"/>
          <path d="M193.2,224.4c8.14,8.26,5,21.7-.48,30.54-5.04,8.8-14.04,17.52-24.98,17-6.63-.45-14.13-4.32-15.61-11.32-.19-1.04-.1-2.65,1.24-2.99,1.28-.16,1.65.31,2.5.76,2.59,1.69,5.48,4.08,8.57,4.68-.35-.07-.65.5-.23.7,0,0-.87-.38-.87-.38-3.67-1.66-7.72-2.9-10.01-6.59-2.21-3.54-.16-8.26,2.87-10.55,2.98-2.44,4.82-.75,7.09,1.39,2.81,2.13,6.35,3.21,9.8,3.88.79.13,1.6.24,2.41.28.06,0-.09,0-.1.02-.04.01-.07.03-.09.05-.09.08-.12.13-.13.3-.01.09.08.3.2.36.14.08.17.06.12.05-.03-.01-.14-.04-.17-.05-3.85-1.18-8.2-1.12-11.8-3.32-7.09-3.67-8.79-10.94-2.32-16.3.55-.5,1.44-.78,2.08-.85,2.94-.25,5.33.47,7.98,1.26,4.83,1.68,9.75,3.46,13.57,6.97.04.04.17.14.14.13-.11-.05-.38-.02-.48.09-.14.15-.08.16-.08.15.08-1.99-3.71-1.75-5.09-2.21-2.39-.61-4.87-1.14-7.36-2.05-7.04-2.38-8.43-7.91-3.99-13.67.26-.36.61-.76.95-1.04,6.11-4.59,18.64-1.65,24.28,2.71h0ZM190.39,228.1c-3.63-2.74-8.37-4.31-12.99-4.63-2.09-.08-4.9-.07-6.38,1.37-3.38,4.12-2.79,6.67,2.15,8.75,3.28,1.54,7.3,2.08,10.31,4.46.92.63,2.25,1.49,2.08,2.86-.11.75-.82.93-1.45.5-4.48-1.88-8.99-3.91-13.67-5.23-2.25-.54-4.98-1.49-7.17-.97-6.72,5.64-.85,10.41,4.86,13.27,2.21,1.37,4.61,2.61,7.21,3.04.22.06.39.04.62.17.58.39.07,1.23-.47,1.18-.39,0-2.08.04-2.5.04-3.92.06-8.05-.49-11.31-2.88-.67-.38-1.97-1.51-2.45-1.59-2.06,1.65-4.31,4.4-3.33,7.23,1.2,3.46,5.25,5.92,8.64,7.32.27.06.45.55.15.8-.16.15-.4.12-.55.07-3.52-.74-6.63-2.87-9.92-4.11-.21-.08-.5-.04-.26-.04.15,0,.37-.22.39-.29.27,1.17.81,2.3,1.79,3.41,1.42,1.7,3.1,3.32,5.14,4.36,8.83,4.87,18.32-1.68,24.08-8.48,3.04-3.58,6.51-7.36,8.26-11.74,2.46-6.16,2.22-14.5-3.24-18.89h0Z"/>
        </g>
        <path class="oqasklioAz12" d="M157.72,250.58c-1.64,2.54.48,5.37,2.88,8.44,3.38,4.33,16.4,5.63,21.41,2.52-5.01,3.11-6.14,6.93-15.44,6.44-7.3-.38-7.84-4.16-10.74-5.85,6.92,1.74,9.56,2.37,9.73,1.93.4-1.07-13.32-5-7.84-13.48Z"/>
      </g>
    </g>
  </g>
</svg>