<?xml version="1.0" encoding="UTF-8"?>
<svg id="Layer_2" data-name="Layer 2" xmlns="http://www.w3.org/2000/svg" viewBox="0 0 97.77 102.94">
  <defs>
    <style>
      .cls-1, .cls-2 {
        fill: #ddd8cf;
      }

      .cls-3, .cls-4, .cls-5 {
        fill: #fff;
      }

      .cls-3, .cls-6, .cls-7, .cls-5, .cls-8 {
        stroke-miterlimit: 10;
      }

      .cls-3, .cls-6, .cls-7, .cls-8 {
        stroke: #000;
      }

      .cls-3, .cls-7 {
        stroke-width: 2.08px;
      }

      .cls-9 {
        fill: #f66;
      }

      .cls-6 {
        fill: #fa0032;
        stroke-width: 1.88px;
      }

      .cls-7, .cls-10 {
        fill: #bdbdb4;
      }

      .cls-2 {
        opacity: .52;
      }

      .cls-11 {
        fill: #ddd8d1;
        opacity: .6;
      }

      .cls-5 {
        stroke: #bb0015;
        stroke-width: .21px;
      }

      .cls-12 {
        fill: #bb0015;
        opacity: 0;
      }

      .cls-8 {
        stroke-width: 1.29px;
      }

      .cls-13 {
        fill: #12e647;
      }
    </style>
  </defs>
  <g id="Layer_1-2" data-name="Layer 1">
    <g id="restaurant_category">
      <g>
        <path class="cls-6" d="M56.08,34.57c-19.14-3.27-39.59,7.09-43.08,24.64-4.06,20.42,6.6,36.92,26.26,41.69,19.4,4.7,43.81-6.01,47.23-26.56,3.73-22.43-12.79-36.75-30.41-39.76Z"/>
        <path class="cls-12" d="M36.68,40.38c-5.45.14-7.44,1.43-12.11,5.17,0,0-7.91,6.33-9.24,17.29-1.43,11.81,11.26,32.68,25.43,37.64-1.59-.23-5.91-1.42-9.22-3.05-5.86-2.83-11.34-6.71-15.57-15.06-.96-1.89-3.45-9.09-2.94-17.38,1.14-18.55,15.07-23.95,17.17-25.23,1.99.23,4.82-.09,7.25-.36-.34.36-.41.63-.76,1Z"/>
      </g>
      <g id="cheeks">
        <path class="cls-5" d="M25.27,75.07c.12-1.54,2.36-2.45,4.24-2.39,2.1.07,4.14,1.91,4.16,3.18.03,1.53-1.39,2.51-4.01,2.41-2.76-.11-4.52-1.53-4.39-3.2Z"/>
        <path class="cls-5" d="M78.87,72.42c-.12-1.54-1.61-2.21-3.44-1.77-2.21.53-3.78,1.36-3.8,2.64-.03,1.53,1.21,2.18,3.83,2.08,2.76-.11,3.54-1.29,3.42-2.95Z"/>
      </g>
      <g id="eyes">
        <g>
          <g>
            <path d="M37.51,55.35c-4.43.02-7.59,5.05-7.6,9.34,0,4.27,3.07,8.42,7.2,8.6,4.52.2,8.23-4.68,7.92-9.49-.25-4.01-3.29-8.46-7.53-8.45Z"/>
            <path class="cls-4" d="M40.73,59.42c-.89-.77-1.99-.48-2.74.37-.78.88-.69,2.63.26,3.39.97.78,2.11.52,2.79-.44.6-.85.54-2.59-.31-3.32Z"/>
          </g>
          <g>
            <path d="M66.08,54.98c-4.42-.06-7.57,4.54-7.58,8.83,0,4.27,3.08,8.54,7.21,8.72,4.76.21,7.71-4.44,7.37-9.58-.27-4.01-3.52-7.91-7-7.96Z"/>
            <path class="cls-4" d="M64.37,58.56c-1.17-.07-2.39.79-2.39,2.14,0,1.42.92,2.22,2.14,2.25,1.24.03,2.25-.96,2.21-2.14-.04-1.04-.83-2.19-1.95-2.25Z"/>
          </g>
        </g>
      </g>
      <g id="mouth">
        <path class="cls-8" d="M44.99,73.84c3.58,1.29,7.02,2.24,13.17-.36.64-.27,1.05.53,1.07,1.17.15,4.95-3.66,8.42-7.13,8.59-3.59.17-7.91-2.91-8.2-8.25-.03-.59.49-1.36,1.09-1.14Z"/>
        <path class="cls-9" d="M51.56,82.27c-1.65,0-4.38-1.46-4.15-2.37.21-.82,2.99-.81,3.63-.81,3.06.02,3.87.33,4.39,1.43.44.93-2.24,1.74-3.87,1.74Z"/>
      </g>
      <g id="hat">
        <g>
          <g>
            <path class="cls-4" d="M20.86,42.88c-.7-2.03-1.33-4.52-1.75-7.57-6.89,1.36-13.23-3.24-14.18-9.06-1.03-6.27,4.32-13.08,11.93-13.21,1.48-6.44,6.88-11.25,13.38-11.94,6.66-.71,15.2,1.92,16.09,9.57-6.48-5.9,7.55-11,12.95-3.81,2.1,2.77,3.34,6.92,1.59,10.79-2.35,5.21-8.09,5.93-8.35,5.96.74-.15,1.48-.31,2.22-.46.75,3.11,1.68,5.9,1.13,9.35-12.09,3.35-22.93,7.02-35.01,10.38Z"/>
            <path d="M20.41,43.74c-.26-.14-.58-.82-.62-1.01-.77-2.36-1.29-4.83-1.63-7.28,0,0,1.14.82,1.14.82-6.88,1.49-14.75-3.3-15.42-10.61-.64-7.25,5.9-13.59,12.97-13.57,0,0-.93.75-.92.75C17.31,5.79,23.84.28,31,.02c5.12-.23,10.99,1.19,14.11,5.62,1.04,1.55,1.88,3.46,1.34,5.34-.86-.59-1.84-1.18-2.21-2.35-1.38-5.56,7.55-7.2,11.39-5.56,3.85,1.26,6.33,5.06,6.97,8.95,1.09,5.6-3.08,11.03-8.49,12.24-.47.2-.99-.02-1.51.04l-.22-1.39c.41-.09,2.5-.54,2.9-.63.89,3.54,2.09,7.21,1.48,10.97-8.68,2.4-18.17,5.39-26.85,8.01-2.77.74-6.66,2.19-9.5,2.46h0ZM21.31,42.02c.91-.64,2.64-1,3.67-1.32,0,0,4.37-1.29,4.37-1.29l8.73-2.65c5.82-1.78,11.65-3.57,17.53-5.19,0,0-.7.79-.7.78.68-3.02-.15-6.04-.88-9.03,0,0,.85.54.85.54l-2.22.44-.22-1.39c1.48-.7,3.17-1.06,4.51-2.09,5.77-3.75,4.36-13.56-1.98-15.99-3.81-1.67-12.9.06-8.52,5.69,0,0-.33.17-.33.17-.76-1.47-1.11-2.94-2.17-4.19-3.05-3.66-8.23-4.76-12.84-4.45-6.58.35-12.25,5.52-13.5,11.94-10.3-.39-16.64,12.42-7.26,18.71,2.78,1.88,6.33,2.31,9.56,1.47.35,2.69.85,5.38,1.7,7.96.04.13,0,0-.06-.03-.06-.05-.16-.08-.26-.06h0Z"/>
          </g>
          <path d="M19.91,32.63c5.86-6.88,20.82-10.86,29.53-9.01,0,0,0,.23,0,.23-4.5.8-10.83,1.83-15.14,3.16-5.08,1.24-9.39,3.79-14.19,5.87,0,0-.19-.26-.19-.26h0Z"/>
        </g>
        <g>
          <path class="cls-2" d="M21.68,40.44c1.55-.99,3.58-2.3,5.12-3.29-1.6-.54-1.7-3.91-2.24-5.82-1.55.74-2.99,1.58-4.54,2.32.55,2.16,1.11,4.64,1.66,6.79Z"/>
          <path class="cls-2" d="M7.01,22.62c-.77,3.29.25,6.75,2.7,9.04,2.59,2.42,7.83,2.59,9.72,1.93.18-1.13.7-2.01,1.19-2.63,2.66-3.41,9.54-5.08,10.69-5.67-.79.15-5.43.97-9.6-2.1-3.16-2.32-3.65-4.39-4.6-6.69-.8,4.86.66,9.19,2.24,10.02-3.73,3.17-10.81,5.27-12.35-3.9Z"/>
          <path class="cls-1" d="M59.34,16.47s-3.13,3.75-7.03,3.72c-2.61-.02-4.7-.62-6.22-3.12-1.91,3.03-1.84,4.45-5.24,5.93,2.63-.29,5.38-.12,7.9-.22.38-.02.72.25.79.63s.09.78.25,1.19c.97.03,1.57.06,2.54.09-.2-.69-.47-1.43-.67-2.12,7.58-1.96,7.69-6.09,7.69-6.09Z"/>
        </g>
      </g>
      <g>
        <g id="lower">
          <path class="cls-13" d="M18.7,44.44s-.07,0-.07-.03c.91-3.26,14.46-10.46,27.47-11.22,18.32-1.07,30.08,4.52,29.54,6.24,0,.02-.04.03-.06.05-6.84,2.82-23.11-3.18-29.27-1.9-6.2.59-22.58,9.25-27.61,6.86Z"/>
          <path d="M18.3,45.29c.22.09.24.07.18.06-.06-.04-.04.06-.45-.22-.59-.77-.17-1.25-.29-.99l.05-.12c.36-1.01,1.19-1.79,1.96-2.46,2.28-1.89,4.91-3.26,7.57-4.48,10.58-4.94,22.56-5.91,34.02-4.18,2.94.4,15.89,2.99,15.23,6.82.03-.04-.13.34-.22.39-.21.21-.3.21-.35.24-6.07,2.01-12.53.18-18.46-1.15-3.66-.82-7.43-2.03-11.2-1.48-2.36.29-4.6,1.24-6.79,2.2-4.4,2.01-8.81,3.93-13.53,5.15-2.56.55-5.03,1.29-7.71.24h0ZM19.11,43.59c1.88.72,4.42.05,6.42-.43,2.26-.59,4.53-1.33,6.8-2.07,4.57-1.42,9.23-2.86,13.98-3.63,3.74-.55,7.66.17,11.43.5,5.54.44,11.17,1.99,16.59.92,0,0,.61-.18.61-.18l.29-.08s-.08.01-.27.2c-.08.04-.23.41-.2.35-.03.04-.03.09-.03.14.02.24.05.13-.16-.06-7.59-5.13-21.35-5.71-30.35-4.95-5.57.61-11.03,2.21-16.13,4.49-2.99,1.47-6.28,2.91-8.37,5.54-.07.11-.12.22-.16.33-.12.26.28-.2-.29-.95-.4-.27-.36-.16-.41-.2-.03,0,.02-.02.27.08h0Z"/>
        </g>
        <g id="upper">
          <path class="cls-13" d="M37.31,37.39c-6.77,4.91-10.11,13.03-9.48,13.65s16.95-3.9,18.11-11.99c5.3,7.07,20.74,9.97,21.58,8.93.74-.91-3.26-6.83-9.57-11.66"/>
          <path d="M37.34,37.43c-3.65,3.88-7.43,8.13-8.69,13.31,0-.02,0-.09-.12-.27-.05-.11-.34-.27-.43-.28,6.66-1.46,14.35-4.65,17.47-11.19,0,0,0-.77,0-.77,0,0,.67.6.67.6,4.74,4.4,10.94,6.77,17.18,8.12,1.19.21,2.45.49,3.62.37.04.01.05-.07-.16.14-.18.31-.05.21-.1.1-1.7-4.41-5.54-7.93-8.82-11.24,3.44.9,5.64,3.71,7.81,6.28.87,1.24,4.34,5.49,1.67,6.33-6.08.44-18.91-3.95-21.8-9.65,0,0,.67-.17.67-.17.28,6.61-10.05,10.84-15.34,12.41-1.06.21-2.22.68-3.42.4-2.16-.95,1.54-6.4,2.34-7.67,1.79-2.6,4.6-5.79,7.46-6.8h0Z"/>
        </g>
      </g>
      <g id="right_hand">
        <path class="cls-7" d="M83.02,98.13l.59.02c1.63.05,3.2-1.39,3.39-3.01,1.28-10.95,1.49-21.09,2.7-32.08.03-.23.3-.64.48-.78,2.3-1.69,6.68-3.61,6.5-11.23.54-7.49-3.35-11.8-7.29-11.7-3.61-.2-9.04,4.47-9.02,12.06-.04,7.5,3.19,8.5,4.53,10.53.12.18.17.39.14.6-1.54,10.97-4.95,24.63-5.23,32.24-.06,1.77,1.45,3.3,3.22,3.35Z"/>
        <g id="left_hand">
          <path class="cls-3" d="M94.77,82.44c.1-7.16-6.54-10.34-9.87-9.22-.8.27-3.65.86-2.88,4.78.05.23-.15.44-.35.57-.67.41-2.05,1.09-2.17,3.12-.04.75.47,2.19.82,2.89.11.23.03.49-.18.63-1.23.83-3.51,4.08,3.56,7.3,4.01,1.83,10.99-4.01,11.08-10.07Z"/>
          <g id="fingers">
            <path d="M87.99,78.41c-1.83-.2-3.5.12-5.14.79-.53.22-.99.52-1.72.39l-.49-.9c.35-.72,1.03-.92,1.67-1.09,1.88-.54,4.09-.46,5.77.57,0,0-.09.25-.09.25h0Z"/>
            <path d="M87.2,84.4c-1.44,1.42-3.85,1.93-5.85,1.4-.68-.14-1.35-.29-1.74-1.03l.44-1.09c1.27-.38,2.25.62,3.48.7,1.17.21,2.35.06,3.53-.25,0,0,.15.27.15.27h0Z"/>
            <path d="M85.76,90.31c-1.14.87-2.81,1.19-4.24.81-.49-.11-1-.25-1.25-.81l.38-.72c.97-.16,1.53.5,2.44.56.81.16,1.68.1,2.59-.05l.08.19h0Z"/>
          </g>
          <path class="cls-11" d="M91.7,77.35c1.45,9.62-6.65,14.25-10.95,9.43.28,3.47,4.42,3.34,6.06,2.71.04-.02.08.03.05.06-.41.54-1.22,1.28-1.65,1.83-.04.05.02.12.07.09,9.66-3.78,8.9-11.04,6.42-14.13Z"/>
        </g>
      </g>
      <g id="right_hand-2" data-name="right_hand">
        <g>
          <g>
            <path class="cls-10" d="M11.65,98.84c1.97-.03,3.46-1.82,3.29-3.79-.89-9.87-1.69-19.36-2.63-29.27-.14-1.48.26-2.95,1.11-4.16.39-.55.74-1.06,1.13-1.58.73-.99,1.28-2.79,1.2-4.02-.22-3.52-.51-7.72-.58-11.59-.04-2.06-1.02-4.48-2.46-4.48-.25,0-1.05,1.91-1.89,2.18-.16.05-.06.13-.21.12-1.12-.07-1.67-2.36-2.36-2.34-.64.02-1.12,2.19-2.31,2.48-.2.05-.32.15-.42.14-.89-.66-1.85-1.44-2.38-2.42-.27-.49-.35-.31-.46.04-.35,1.11-1.57,1.94-1.63,3.12-.05,5.01-.13,9.09-.17,13.98,0,.51-.06,1.43.28,1.82l3.82,3.95c.96,1,1.51,2.32,1.55,3.7.21,9.34.63,19.3,1.37,28.68.15,1.94,1.83,3.46,3.77,3.43Z"/>
            <path d="M11.64,97.92c1.42,0,2.59-1.44,2.39-2.89-.06-.68-.23-2.71-.3-3.42,0,0-.8-9.13-.8-9.13-.27-3.09-.93-10.72-1.19-13.69,0,0-.2-2.28-.2-2.28-.35-1.99.28-4.34,1.62-5.91,1.05-1.29,1.94-3,1.8-4.72-.18-3.05-.37-6.1-.47-9.17-.06-1.81.14-4.59-1.37-5.86-.14-.1-.25-.14-.39-.15.01,0-.07,0,.1-.01.19-.05.23-.08.3-.14-.44.61-.82,1.41-1.54,1.98-.11.08-.23.17-.39.24-.06.03-.24.09-.1.03.05-.02.16-.1.21-.2.02-.04.03-.04-.04.06-.06.1-.27.25-.37.27-.42.09-.36.02-.48.03-.74-.09-1.33-.84-1.64-1.33-.22-.34-.41-.69-.59-.92-.07-.12-.21-.17-.03-.1.1.03.27-.03.27-.04.02-.01-.02.01-.05.06-.58.82-1.11,2.16-2.3,2.44,0,0-.04.02-.04.02l-.12.06c-.07.02-.16.11-.47.1h-.03s-.17-.01-.17-.01c-.66-.46-1.31-.92-1.93-1.53-.35-.34-.76-.86-.97-1.26.12.13.3.19.49.2.33,0,.52-.17.62-.33-.2.81-.9,1.61-1.22,2.1-.21.32-.34.55-.39.84,0,.06-.02.62-.02.71,0,0-.08,8.43-.08,8.43.03,1.21-.15,5.02.01,6.08.01.06.05.1,0,.04-.04-.04.04.04.06.06l.37.38c.45.49,1.72,1.76,2.2,2.26,1.58,1.48,2.99,3.21,2.98,5.51.21,8.61.56,17.21,1.19,25.79.11.83.08,3.14.49,3.82.46.96,1.51,1.62,2.56,1.59h0ZM11.67,99.77c-2.25.06-4.3-1.68-4.65-3.88-.1-.76-.2-2.47-.26-3.24-.6-8.44-.94-16.9-1.13-25.35,0-.61-.03-1.25-.23-1.83-.35-1.23-1.39-2.12-2.26-3.04,0,0-1.47-1.53-1.47-1.53l-.73-.76c-.31-.32-.74-.74-.82-1.19-.21-.82-.09-1.57-.11-2.34,0,0,.06-4.23.06-4.23l.12-8.46c.02-.21-.01-.63.03-.87.1-1.19,1.37-2.25,1.66-3.13.11-.51.64-1.12,1.32-.83.13.04.3.19.37.27.15.17.2.27.26.37.48.92,1.25,1.58,2.09,2.25,0,0-.34-.14-.34-.14,0,0-.02,0-.02,0-.59.14.37-.15.25-.11.87-.47.98-1.66,1.84-2.3,1.61-.91,2.01,1.66,2.98,2.13-.03.02.13-.03-.2.03-.08.02-.27.15-.32.23-.05.08-.04.06,0,0,.08-.19.45-.35.49-.36.25-.15.45-.43.68-.77.37-.45.67-1.46,1.45-1.44,1.45.03,2.34,1.58,2.7,2.66.54,1.33.46,3.32.53,4.75.12,3.04.34,6.08.54,9.13.1,1.74-.39,3.41-1.4,4.84-1.36,1.73-2.36,3.46-1.93,5.73,0,0,.21,2.28.21,2.28.61,6.56,1.5,16.23,2.11,22.81,0,0,.21,2.28.21,2.28,0,0,.11,1.14.11,1.14.33,2.41-1.62,4.89-4.17,4.9h0Z"/>
          </g>
          <path d="M4.48,42h2.47v12.56c0,.68-.55,1.22-1.22,1.22h-.02c-.68,0-1.22-.55-1.22-1.22v-12.56h0Z"/>
          <path d="M9.65,42.06h2.47v12.56c0,.68-.55,1.22-1.22,1.22h-.02c-.68,0-1.22-.55-1.22-1.22v-12.56h0Z" transform="translate(-.65 .15) rotate(-.77)"/>
        </g>
        <g id="left_hand-2" data-name="left_hand">
          <path class="cls-3" d="M1.33,82.55c-.1-7.16,6.54-10.34,9.87-9.22.8.27,3.65.86,2.88,4.78-.05.23.15.44.35.57.67.41,2.05,1.09,2.17,3.12.04.75-.47,2.19-.82,2.89-.11.23-.03.49.18.63,1.23.83,3.51,4.08-3.56,7.3-4.01,1.83-10.99-4.01-11.08-10.07Z"/>
          <g id="fingers-2" data-name="fingers">
            <path d="M8.02,78.27c1.67-1.02,3.88-1.11,5.77-.57.64.17,1.31.37,1.67,1.09l-.49.9c-1.29.14-2.13-.75-3.35-.92-1.11-.28-2.28-.39-3.51-.25l-.09-.25h0Z"/>
            <path d="M9.04,84.25c1.75.5,3.49.46,5.16-.2.54-.21,1.06-.51,1.84-.24l.44,1.09c-.39.74-1.07.89-1.74,1.03-.67.15-1.39.23-2.1.19-1.44-.06-2.78-.7-3.74-1.59l.15-.27h0Z"/>
            <path d="M10.42,90.23c1.34.24,2.55.19,3.76-.28.38-.15.71-.37,1.27-.24l.38.72c-.55.97-1.8.91-2.76.96-1.01-.05-1.97-.4-2.73-.97l.08-.19h0Z"/>
          </g>
          <path class="cls-11" d="M4.4,77.47c-1.45,9.62,6.65,14.25,10.95,9.43-.28,3.47-4.42,3.34-6.06,2.71-.04-.02-.08.03-.05.06.41.54,1.22,1.28,1.65,1.83.04.05-.02.12-.07.09-9.66-3.78-8.9-11.04-6.42-14.13Z"/>
        </g>
      </g>
    </g>
  </g>
</svg>