<?xml version="1.0" encoding="UTF-8"?>
<svg id="Layer_2" data-name="Layer 2" xmlns="http://www.w3.org/2000/svg" viewBox="0 0 419.94 344.26">
  <defs>
    <style>
      .cls-1 {
        fill: #fc0;
      }

      .cls-1, .cls-2, .cls-3, .cls-4, .cls-5, .cls-6, .cls-7, .cls-8, .cls-9, .cls-10, .cls-11, .cls-12, .cls-13, .cls-14, .cls-15, .cls-16 {
        stroke-miterlimit: 10;
      }

      .cls-1, .cls-2, .cls-3, .cls-4, .cls-5, .cls-6, .cls-7, .cls-9, .cls-10, .cls-11, .cls-12, .cls-13, .cls-14, .cls-17, .cls-16, .cls-18 {
        stroke: #000;
      }

      .cls-1, .cls-16 {
        stroke-width: 6.58px;
      }

      .cls-2, .cls-7, .cls-11 {
        fill: #55991a;
      }

      .cls-2, .cls-11, .cls-14 {
        stroke-width: 3.56px;
      }

      .cls-3, .cls-9 {
        stroke-width: 4.75px;
      }

      .cls-3, .cls-19 {
        fill: #f52c23;
      }

      .cls-4 {
        fill: #b30404;
        stroke-width: 3.97px;
      }

      .cls-5 {
        fill: #fa0032;
        stroke-width: 7.68px;
      }

      .cls-6 {
        stroke-width: 4.53px;
      }

      .cls-6, .cls-10, .cls-13 {
        fill: #fed018;
      }

      .cls-20, .cls-8, .cls-18 {
        fill: #fff;
      }

      .cls-7 {
        stroke-width: 5.93px;
      }

      .cls-8 {
        opacity: .4;
        stroke-width: 1.18px;
      }

      .cls-8, .cls-15 {
        stroke: #bb0015;
      }

      .cls-9 {
        fill: #f22323;
      }

      .cls-10 {
        stroke-width: 5.11px;
      }

      .cls-11, .cls-17, .cls-15 {
        stroke-linecap: round;
      }

      .cls-21 {
        fill: #bb0015;
      }

      .cls-12 {
        fill: #8b120c;
        stroke-width: 8.1px;
      }

      .cls-13 {
        stroke-width: 5.94px;
      }

      .cls-14, .cls-17, .cls-15 {
        fill: none;
      }

      .cls-22 {
        fill: #0c9930;
      }

      .cls-17 {
        stroke-width: 9.8px;
      }

      .cls-17, .cls-18 {
        stroke-linejoin: round;
      }

      .cls-23 {
        fill: #fd2b26;
      }

      .cls-24 {
        fill: #bf5300;
      }

      .cls-15 {
        stroke-width: 2.45px;
      }

      .cls-25 {
        fill: #12e647;
      }

      .cls-16 {
        fill: #d2161a;
      }

      .cls-18 {
        stroke-width: 3.29px;
      }
    </style>
  </defs>
  <g id="Layer_1-2" data-name="Layer 1">
    <g id="results">
      <g id="themes">
        <g id="romantic_theme">
          <g>
            <g>
              <path class="cls-5" d="M184.86,56C105.12,61.63,33.51,122.03,36.83,194.25c3.85,84.03,62.72,138.51,146,138.25,82.19-.26,171.94-59.45,165.41-143.38-7.13-91.6-89.95-138.29-163.37-133.11Z"/>
              <path class="cls-21" d="M113.4,96.57c-21.66,5.82-28.36,12.77-43.35,31.96,0,0-25.39,32.48-19.95,76.74,5.87,47.71,77.18,117.38,138.69,123.14-6.57.63-25.01.13-39.88-3.07-26.19-5.44-51.93-15.4-77.08-44.08-5.7-6.5-22.72-32.34-28.84-65.37-13.69-73.88,36.69-108.53,43.84-115.55,2.56-2.61,54.37-38.8,64.64-23.36-1.02,1.75-37.04,17.84-38.06,19.59Z"/>
            </g>
            <g id="mouth">
              <path d="M190.44,240.12c4.38,7.25,11.86,13.09,20.52,13.35,6.19.38,12.27-2.39,16.48-6.94,1.61-1.62,2.97-3.58,4.25-5.59,1.27-1.99,3.91-2.57,5.89-1.3,1.85,1.18,2.48,3.57,1.53,5.5-2.55,5.13-6.37,9.91-11.41,13.21-16.24,10.77-36.93,2.34-44.91-14.38-2.34-5.14,4.9-8.75,7.65-3.84h0Z"/>
            </g>
            <g id="cheeks">
              <g>
                <path class="cls-8" d="M104.71,238.93c.65-8.81,13.06-13.99,23.45-13.65,11.63.37,22.89,10.87,23.02,18.16.15,8.75-7.72,14.32-22.19,13.72-15.3-.63-24.99-8.74-24.29-18.23Z"/>
                <path class="cls-15" d="M132.57,248.33c1.88-1.58,3.4-3.47,4.83-5.43,1.45-2,2.36-4.45,3.81-6.44"/>
                <path class="cls-21" d="M117.62,246.22c1.89-3.14,4-6.14,6.19-9.07.74-.97,1.5-1.93,2.29-2.86.44-.51,1.21-.58,1.72-.14.47.4.54,1.05.27,1.56-.41.99-1.19,2.32-1.74,3.25-1.97,3.16-4.2,6.14-6.84,8.77-1.01.99-2.64-.32-1.9-1.51h0Z"/>
              </g>
              <g>
                <path class="cls-8" d="M273.09,239.29c.65-8.81,13.06-13.99,23.45-13.65,11.63.37,22.89,10.87,23.02,18.16.15,8.75-7.72,14.32-22.19,13.72-15.3-.63-24.99-8.74-24.29-18.23Z"/>
                <path class="cls-21" d="M293.79,245.31c2.16-4.45,4.87-8.63,7.98-12.47.44-.52,1.22-.58,1.74-.14.44.37.53.96.33,1.46-.8,2.42-2,4.58-3.3,6.68-1.35,2.1-2.81,4.09-4.68,5.8-.49.54-1.35.57-1.85.02-.34-.37-.41-.91-.22-1.34h0Z"/>
                <path class="cls-21" d="M281.14,245.79c1.14-2.9,2.65-5.63,4.26-8.29.86-1.03,1.73-3.93,3.45-2.85.46.34.6.93.42,1.44-.94,2.99-2.38,5.77-4.09,8.39-.56.81-1.31,1.9-2,2.6-.9.97-2.53-.07-2.05-1.28h0Z"/>
              </g>
            </g>
            <g id="eyes">
              <g>
                <g>
                  <path d="M152.5,172.88c-15.05.05-26.91,14.23-26.95,28.54-.03,14.24,12.1,27.73,26.13,28.35,15.36.68,27.71-14.44,26.67-30.48-.87-13.39-11.44-26.45-25.86-26.4Z"/>
                  <path class="cls-20" d="M157.42,184.36c-3.06-2.58-6.85-1.61-9.41,1.24-2.68,2.98-2.37,8.87.88,11.45,3.33,2.64,7.26,1.76,9.6-1.49,2.07-2.87,1.85-8.73-1.07-11.2Z"/>
                </g>
                <g>
                  <path d="M268.66,168.83c-14.76-.19-24.58,14.87-25.29,28.89-.78,15.71,8.03,27.64,21.8,28.23,15.87.67,30.32-13.85,27.76-31.03-1.94-13.02-12.68-25.94-24.28-26.09Z"/>
                  <path class="cls-20" d="M263.78,176.67c-3.77-.23-6.71,2.68-6.71,7.27,0,4.83,2.97,7.56,6.88,7.68,4,.12,5.79-3.56,5.65-7.57-.12-3.55-2.21-7.15-5.82-7.37Z"/>
                </g>
              </g>
            </g>
            <g id="eye_brows">
              <path class="cls-17" d="M131.41,151.18c14.88,1.63,24.81-2.42,35.2-14.24"/>
              <path class="cls-17" d="M285.73,151.04c-16.16,1.14-24.69-3.31-33.75-14.29"/>
            </g>
            <g>
              <g>
                <path class="cls-25" d="M163.17,84.08c11.78,22.58,30.8,30.22,55.36,30.25,2.19,0,4-1.8,3.92-3.99-.52-13.75-11.74-25.2-29.27-36.88-.04-.02-.01-.08.03-.07,33.37,8.59,50.94-4.79,63.18-23.06,1.01-1.5.3-3.57-1.42-4.13-26.43-8.68-47.73-.53-66.86,19.13,13.92-13.26,27.97-28.46,27.31-41.74-.28-5.63-5.63-9.68-11.34-9.04-53.17,5.91-38.62,54.48-38.15,53.88-3.18-15.13-24.63-37.69-54.95-31.3-3.04.64-5,3.48-4.58,6.5,3.27,23.54,26.76,33.65,44.1,32.6-28.09-1.6-43.04,23.19-42.81,40.53.03,2.32,2.02,4.13,4.32,3.87,27.64-3.14,43.07-15.25,51.17-36.55Z"/>
                <path d="M163.04,81.85c1.74,1.47,3.51,3.72,4.63,5.72.37.58,1.32,2,1.69,2.59,4.64,6.76,10.94,12.41,18.38,15.92,6.76,3.3,14.38,4.96,21.89,5.66,2.7.2,5.65.35,8.36.36,0,0,.52.01.52.01.25,0,.46-.05.69-.14.58-.25.98-.82,1.01-1.39,0-.25-.1-1.4-.14-1.76-.59-5.99-3.6-11.42-7.42-16.04-5.82-6.93-13.18-12.37-20.69-17.44.47.28-1.03-.32-1.03-2.06-.06-1.38,1.75-2.47,2.83-2.04,4.57,1.06,9.55,2.12,14.22,2.37,20.53,1.77,35.34-7.6,46.45-24.36.14-.19.11-.18.14-.21,0-.03.03-.06.03-.09.06-.22-.05-.5-.26-.58-.09-.03-.02-.02-.17-.06-1.67-.46-3.32-1-4.99-1.42-17.29-4.43-32.38-.58-47.39,8.35-4.92,2.73-9.82,5.9-13.61,10.18l-.14-.14c1.18-1.5,1.67-3.67,2.61-5.41,8.26-8.59,17.33-17.44,21.43-28.92.61-1.94,1.08-3.98,1.08-6.01.07-1.42-.07-2.43-.53-3.5-1.3-3.05-4.92-4.93-8.24-4.5-7.32.87-14.8,2.76-21.1,6.37-13.02,7.01-18.33,21.94-16.86,36.09.29,1.55-.66,3.1-1.02,4.59-.37,1.44.11,3.15,1.43,3.85.03-.07-.04-.15-.11-.24-.15-.07-.56-.78-1.72.12l-.22.97c-.57-.58-1.08-1.12-1.41-1.72-5.65-14.58-19.98-25.31-35.31-27.71-5.46-.87-11.07-.58-16.52.51-1.5.29-2.65,1.76-2.48,3.29.16.93.56,2.81.76,3.79,1.63,6.49,5.35,12.22,10.42,16.62,4.55,3.95,10.05,6.96,15.88,8.9,4.49,2.01,9.29,4.47,14.35,3.43,0,0,0,.88,0,.88-3.63.28-6.9,1.85-10.34,2.52-12.77,2.79-23.17,12.86-27.73,24.96-1.44,3.83-2.37,7.86-2.44,11.94-.03.83-.02.93.1,1.27.63,1.36,1.58,1.08,3.11.85,15.2-1.76,30.6-7.62,39.92-20.26,1.7-2.19,3.15-4.57,4.5-7.01,1.59-3.05,2.92-6.7,5.44-9.09h0ZM163.3,86.31c.05,1.01.54,1.54.37,2.38-.63,1.44-1.39,2.94-2.12,4.36-6.99,13.6-20.02,23.23-34.69,27.03-4.14,1.07-8.87,2.08-13.11,2.57,0,0-1.1.15-1.1.15-2.65.53-5.8-1.12-6.76-3.75-.91-2.49-.35-5.11-.16-7.63,2.28-16.67,14.52-32.24,31.25-36.13,4.44-1.47,9.21-.43,13.54.5,0,0,0,.89,0,.89-2.93-.29-5.79-.04-8.79.14-4.57.61-9.12-.33-13.33-2.11-2.75-1.16-5.66-2.52-8.12-4.24-7.77-5.13-13.58-13.19-15.71-22.31-.09-.61-.56-2.79-.66-3.42-.56-2.39.04-5.22,1.63-7.15,1.27-1.62,3.15-2.73,5.18-3.08,17.95-4.01,37.63,2.72,49.11,17.16,2.86,3.56,5.29,7.52,6.89,11.83.62,1.5.97,3.04.5,4.67,0,0-.2,1.05-.2,1.05-1.39,1.07-1.9.29-2.2-.09-.24-.45-.08-1.01-.1-1.47.39-3.03-2.88-4.89-3.04-7.78-2.04-16.55,3.9-32.91,19.11-41.05,7.05-3.86,14.72-5.7,22.52-6.57,1.79-.22,3.64-.14,5.38.36,5.32,1.28,9.61,6.91,8.95,12.41-.14,6.49-3.19,12.56-6.63,17.91-4.7,7.05-10.49,13.27-16.46,19.23-.31.24-.45.64-.84.77-1.75.94-3.97,1.35-5.51,2.47,0,0-.14-.14-.14-.14,4.2-3.86,7.86-8.29,12.24-12.17,4.32-3.95,9.58-6.78,15.06-8.96,11.01-4.43,23.54-4.57,34.93-1.62,1.77.46,3.53,1.03,5.29,1.53,1.83.53,3.29,2.26,3.49,4.16.12.96-.05,1.97-.49,2.84-.17.39-1.41,2.1-1.68,2.49-.82,1.21-1.72,2.37-2.62,3.52-7.18,9.34-17.22,17.08-28.91,19.76-10.7,2.57-21.77,1.42-32.3-1.16-.11-.02-.3-.07-.4-.09,1.04.41,2.8-.64,2.74-1.98,0-1.69-1.46-2.27-.95-1.96l1.79,1.22c11.78,8.26,24.91,18.27,27.95,33.22.3,1.64.49,3.07.5,4.8-.17,3.2-3.03,5.77-6.16,5.7-5.22-.07-10.66-.39-15.8-1.32-15.73-2.5-29.47-10.93-38.08-24.46-.26-.4-.95-1.38-1.11-1.71-.42-.89-.09-1.69-.22-2.76h0Z"/>
              </g>
              <path class="cls-22" d="M252.31,49.62c-13.3,7.65-33.49,15.89-56.33,20.66,2.8,1.14,14.87,5.54,32.6-.56,14.84-5.11,22.13-16.92,23.73-20.1Z"/>
              <path class="cls-22" d="M110.27,42.4c.43-.4,4.42,5.1,15.83,13.12,16.56,11.63,28.88,12.71,26.81,18.73-.27.79-3.11,1.01-8.62-.54-31.9-8.99-34.85-30.53-34.02-31.3Z"/>
            </g>
          </g>
          <g>
            <path class="cls-23" d="M305.51,42.76c.45.68,1.37.8,1.98.26,7.37-6.37,41.56-17.27,23.05-37.85-2.06-2.29-14.22-4.98-18.23,3.74-2.57-9.81-15.62-10.3-19.23-7.28-18.26,15.24,7.72,34.05,12.43,41.13Z"/>
            <path class="cls-23" d="M61.05,51.14c-.36-5.9,33.61-29.09,8.72-42.35-2.53-1.35-14.03.17-14.77,9.08-5.38-7.77-16.95-4.04-19.15-.25-12.39,21.33,24.65,29.06,25.2,33.52Z"/>
            <path class="cls-23" d="M365.47,43.43c.28-.92,1.87-.94,2.24-.05,1.17,2.74,1.99,9.58,5.3,12.93,2.84,2.87,7.38,4.22,10.19,5.28,1.26.48,1.27,2.26.02,2.75-7.45,2.93-14.29,5.84-14.31,15.19,0,2.33-3.76,2.72-4.17.27-1.79-10.68-8.13-12.7-13.7-15.18-1.21-.54-1.23-2.26-.03-2.82,2.81-1.3,7.89-2.16,9.83-5.05,2.43-3.61,3.76-10.47,4.63-13.32Z"/>
            <path class="cls-23" d="M335.31,76.25c.23-.75,1.52-.77,1.83-.04.95,2.23,1.62,7.8,4.31,10.53,2.31,2.34,6.01,3.43,8.3,4.3,1.03.39,1.04,1.84.01,2.24-6.06,2.38-11.64,4.76-11.66,12.37,0,1.9-3.06,2.22-3.4.22-1.45-8.69-6.62-10.34-11.15-12.36-.98-.44-1-1.84-.02-2.3,2.29-1.06,6.42-1.76,8-4.11,1.98-2.94,3.06-8.53,3.77-10.85Z"/>
          </g>
          <g id="left_hand">
            <g>
              <path class="cls-18" d="M288.93,282.05c-1.16.91-17.58,7.31-14.29,28.74,3.63,23.68,26.42,23.82,28.03,21.8,2.01-2.54-6.07-3.65-10.13-12.08,12.99,16.48,29.27,13.88,35.88,10.51-16.35-14.67-28.92-30-39.49-48.97Z"/>
              <g>
                <path class="cls-20" d="M289.58,283.91c1.43,6.27.54,16.6.65,22.89"/>
                <path d="M291.65,283.44c1.19,7.8-.17,15.61-.44,23.35-.01.55-.48.98-1.02.96-.51-.02-.91-.43-.94-.92-.5-7.5.08-15.17-1.74-22.44-.72-2.86,3.55-3.84,4.15-.95h0Z"/>
              </g>
            </g>
            <g>
              <path class="cls-12" d="M335.81,339.09c43.27-12.6,66.53-35.49,77.62-63.86,8.52-21.79-6.31-43.19-25.64-49.31-12.25-3.88-24.92-3.76-37.11,9.95-.16.18-.44.1-.51-.14-5.33-19.71-30.9-22.59-39.14-19.15-25.25,10.54-50.47,45.11,24.78,122.51Z"/>
              <path class="cls-16" d="M324.76,327.66c38.31-11.16,66.72-32.03,76.38-57.21,6.07-15.82,1.59-39.86-15.53-45.28-10.84-3.44-24.29-1.23-35.08,10.92-.14.16-.4.09-.45-.12-4.36-20.24-26.62-26.66-39.84-21.53-17.64,6.84-52.12,44.69,14.51,113.23Z"/>
              <g>
                <path class="cls-1" d="M402.21,263.16c-36.65-6.61-74.22-13.35-110.86-19.95-.57.41-.87.63-1.44,1.04-.71,5.09-1.42,10.17-2.13,15.26.47.65.77,1.07,1.24,1.72,18.03,3.38,36.06,6.77,54.09,10.15,17.63,3.32,33.62,7.29,51.24,10.61,4.6-4.77,6.42-11.95,8.43-17.87.15-.43-.13-.88-.57-.96Z"/>
                <g>
                  <path class="cls-24" d="M403.46,263.85c3.17.89,9.15,3.31,12.32,4.2,1.05.3-.78,4.73-1.14,5.76-1.76,5.14-3.5,8.88-6.01,13.39-.41.73-1.27,2.48-2.07,2.23-3.21-.99-8.54-4.97-11.22-6.6,2.6-5.79,5.52-13.21,8.12-19Z"/>
                  <path d="M402.07,260.88c.75-.32,2.62-.2,3.11.06,0,0,.8.25.8.25.97.31,3.54,1.23,4.53,1.58,1.96.7,3.94,1.38,5.75,1.99.74.2,1.55.55,2.09,1.17,2.22,2.7.25,6.06-.72,8.62-.79,1.73-1.84,4.14-2.55,5.88-1.23,2.98-2.33,6.08-3.88,8.91-.94,1.97-3.13,4.18-5.77,3.2-5.18-1.97-9.57-5.74-14.26-8.4,1.8-3.95,3.52-8,5.2-12.05.67-1.59,2.37-5.65,3.04-7.17.57-1.46,1.4-3.09,2.66-4.03h0ZM404.86,266.83c.44.06.93-.14,1.12-.55,0,0-.03.07-.03.07-.94,2.1-2.6,6.1-3.51,8.26-1.33,3.18-2.66,6.37-4.09,9.58,0,0-1.3-4.16-1.29-4.15,3.5,2.18,6.51,4.64,10.17,6.15,0,0,.24.08.24.08,0,0,.25.06-.25-.05-.74-.18-1.81.16-2.14.57,2.16-3.56,4.76-7.27,5.99-11.35.13-.48.5-1.72.61-2.2.37-1.47,1.07-3.16,1.18-4.5-.01.26-.04.41.3,1.12.34.63,1.05,1.18,1.73,1.35-.03-.02-.47-.13-.52-.15-3.84-1.13-7.38-2.68-11.12-3.85-.31-.09.23.09.58.03.38-.03.77-.19,1.04-.42h0Z"/>
                </g>
              </g>
              <g>
                <path class="cls-6" d="M343.51,277.7c-.19,9.55-.14,12.67,1.39,21.45.51,2.91,1.73,2.57,2.77,1.89,2.4-1.57,4.83-4.3,7.1-5.97.38-.28.89-.35,1.34-.2,2.6.84,4.92,1.35,6.89,1.62,1.4.19,1.81-1.71,1.74-3.12-.56-11.01-6.41-21.2-13.98-24.5-1.59-.69-2.67-.21-3.88,1.03-3.33,3.42-2.73,5.44-3.36,7.79Z"/>
                <path class="cls-6" d="M324.75,267.4c-7.88,5.41-8.16,6.33-14.41,12.69-2.07,2.11-1.09,2.9.07,3.35,2.68,1.04,5.55,1.18,8.23,2.05.46.15.81.53.96.99,1.03,3.24,2.91,6.58,4.03,8.54.1.17.35.25.49.11,7.42-7.43,14.16-18.87,14.61-27.3.07-1.29-1.3-3.54-2.44-2.94-3.72,1.91-9.19,1.62-11.54,2.51Z"/>
                <path class="cls-13" d="M340.88,264.22c-10.33,4.14-22.46,4.89-27.94,1.34-10.83-7.01-2.7-30.23,7.62-32.53,6.51-1.45,15.69,5.51,21.67,16.83-.36,4.74-.99,9.63-1.34,14.36Z"/>
                <path class="cls-13" d="M348.31,266.49c8.22,7.51,15.79,13.5,22.17,12.1,12.61-2.75,15.85-26.79,7-32.57-5.58-3.65-15.66-1.47-25.24,7.02-1.33,4.56-2.6,8.89-3.94,13.45Z"/>
                <path class="cls-10" d="M346.71,249.68c-3.96-.98-9.42,3.81-10.14,8.52-.86,5.62,2.42,10.47,5.9,11.11,4.65.85,10.72-3.93,11.09-9.95.25-4-1.97-8.48-6.85-9.68Z"/>
              </g>
            </g>
          </g>
          <g id="right_hand">
            <g>
              <path class="cls-20" d="M88.29,309.99c-.44,1.8-11.47,10.15-12.06,11.29-.28.53-.15,2.51,1.96,4.37,3.95,3.5,19.94-4.72,26.63-16.96,9.23-16.88-.75-30.21-4.92-30.17-1.74.02-1.72,2.24-5.75,14.37,9.18-15.44-8.32-41.18-10.96-44.16-3.19-3.58-6.38-6.31-10.15-6.33-2.9-.02-6.19,4.33-6.11,7.22.63,23.33,2.2,45.76,2.69,69.23,8.19.66,16.12-1.55,18.68-8.88Z"/>
              <path d="M88.61,308.92c.14.07.51.26.69.75.17.48,0,.89-.07,1.02-1.16,1.99-2.98,3.48-4.59,5.06-1.22,1.12-5.47,4.96-6.58,6.1,0,0-.23.25-.23.25-.06.07-.13.17-.09.11.03-.02.16-.29.16-.35.07.91.72,1.92,1.52,2.5,4.14,1.05,10.15-3.6,13.27-6.22,8.77-7.62,15.79-19.63,12.01-31.4-.86-2.4-2.42-5.3-4.65-6.33-.09-.03-.18-.03-.11-.04.08,0,.35-.15.34-.19,0-.05-.28.41-.44.83-1.45,3.93-2.61,8.41-4,12.45,0,0-3.22-1.47-3.22-1.47,5.46-9.99.57-22.06-4.12-31.53-3-5.47-8.88-16.53-15.91-16.19-1.92.63-4.15,3.64-3.87,5.89.06,1.9.17,5.67.24,7.62.73,19.89,2.02,41.21,2.43,61.07,0,0-1.64-1.74-1.64-1.74,6.31.37,14.17-.62,17.22-6.93.18-.6,1.06-1.2,1.63-1.25h0ZM87.98,311.06c.2.33.92.42,1.13.06-2.64,7.98-12.11,10.42-19.63,9.52-.92-.07-1.62-.84-1.64-1.74-.24-11.61-.76-23.22-1.3-34.84-.26-5.71-.94-20.63-1.13-26.18-.06-1.9-.2-5.75-.24-7.65-.17-4.09,2.68-8.08,6.44-9.4,1.81-.5,3.78-.03,5.45.66,9.88,4.46,18.76,23.74,20.81,34.1,1.21,6.03,1.09,12.72-2.18,18.2-1.1,1.82-3.87.52-3.22-1.47,1.46-4.27,2.59-8.28,4.06-12.64.29-.75.5-1.33,1.13-2.04,1.97-2.18,5.51-.19,6.98,1.29,5.4,5.21,7.55,12.96,6.74,20.3-1.05,9.63-7.3,18.26-15.22,23.45-4.01,2.62-8.2,4.76-13.04,5.56-1.25.17-2.59.28-4.12-.15-2.88-.76-6.39-5.87-3.7-8.42,0,0,.36-.33.36-.33l.67-.58c3.13-2.65,7.79-5.88,10.65-8.78,0,0,.19-.23.19-.23l.06-.08c-.04.07-.19.41,0,.83.2.42.59.55.76.56h0Z"/>
            </g>
            <g id="flower">
              <g>
                <g id="leafs">
                  <path class="cls-7" d="M49.51,226.24c-1.17.79-12.02,7.86-25.47,2.56-14.54-5.73-19.02-19.48-19.97-20.95,1.18-.9,5.67-7.2,24.13-4.36,10.56,1.62,19.47,8.58,21.31,22.75Z"/>
                  <path class="cls-7" d="M55.9,222.6c1.17.79,12.42,3.35,25.93-4.66,14.44-8.56,16.78-26.57,17.04-31.52.03-.65-2.06-2.31-2.7-2.44-3.62-.7-12.33-1.65-26.56,7.68-8.93,5.86-11.87,16.77-13.71,30.94Z"/>
                  <path class="cls-11" d="M60.24,219.07c6.22-6.24,11.53-13.69,21.52-16.6"/>
                  <path class="cls-11" d="M46.55,224.66c-7.09-5.22-13.5-9.19-23.82-10.55"/>
                </g>
                <path class="cls-2" d="M76.69,342.13c-3.03.76-8.84.49-9.43-2.57-2.47-24.39-4.16-44.34-9.11-71.88-4.7-26.14-12-56.76-17.83-79.45-.02-.09-.09-.56.21-1.02.19-.29.5-.5.86-.58l9.4-1.9c.74-.15,1.47.33,1.61,1.07l29.68,149.13c.53,2.83-2.61,6.49-5.41,7.19Z"/>
              </g>
              <g>
                <path class="cls-9" d="M44.8,187.15c-1.6.35-18.1,2.77-30.15-8.09-9.72-8.77-13.19-24.48-8.61-37.53,18.99-2.59,38.63-5.34,57.61-7.93,1.73,1.71,10.84,11.19,10.15,23.36-.83,14.68-12.74,27.27-29.01,30.19Z"/>
                <path class="cls-9" d="M48.09,153.15c12.26-6.33,22.22-18.41,19.51-28.21-1.95-7.08-9.46-10.13-15.95-9.36-8.47,1-15.77,13.16-13.49,31.51,3.63,2.11,6.3,3.96,9.93,6.06Z"/>
                <g>
                  <path class="cls-19" d="M51.43,182.07c.92-12-4.97-18.57-14.37-23.01-14.47-6.83-26.1-10-33.09-17.78-2.22-2.47-3.06-7.9-1.05-10.55,2.16-2.86,12.06-11.49,10.94-5.36-.06.35-4.22,4.48,2.57,10.55,7.06,6.3,11.7,7.45,20.63,11.71,22.41,10.7,15.82,24.02,14.37,34.43Z"/>
                  <path d="M51.24,183.84c-.78-.92-1.57-2.35-1.5-3.64,0,0,0-.31,0-.31,0,0,0-.17,0-.17.21-8.08-4.29-14.38-11.39-18-10.03-5.62-32.62-11.61-37.41-22.06-1.32-3.4-1.53-7.85,1.14-10.71,2.27-2.52,11.75-11.85,13.58-5.07.09.91.08,1.69-.31,2.48-.38.59-.81,1.24-.94,1.93-.3,1.28.19,2.65.91,3.73,6.49,8.45,17.55,11.03,26.52,16.14,4.86,2.97,9.51,6.62,11.82,12.13,2.34,5.48,1.62,11.34.48,16.86,0,0-.51,2.62-.51,2.62-.16.68-.19,1.33-.54,2.04-.35.86-1.23,1.55-1.85,2.05h0ZM51.62,180.3c-.23-.44-.98-.78-1.41-.59-.16.05-.2.09-.2.06,0,0,.13-.67.13-.67,1.2-5.66,2.68-12.04.28-17.46-2.24-5.31-7.61-9.08-12.68-11.63-5.6-2.96-11.8-4.64-17.22-8.04-5.67-3.56-13.3-9.95-8.41-17.21,0,0,.09-.13.09-.13l.04-.05.02-.03s.02-.03-.03.05c-.06.11-.11.24-.13.36-.02.11-.02.12-.01.06,0,0,.02-.11.02-.11.03-.09.04-.44.03-.47,0-.05,0,.08.16.26.15.21.48.31.53.31.16,0-.15.02-.42.14-3.15,1.57-6.1,4.18-8.29,6.93-.97,1.83-.67,4.33.07,6.27.58,1.54,1.69,2.48,2.82,3.55,7.96,6.9,18.62,9.87,28.03,14.41,10.47,4.35,18.34,11.24,18.23,23.43,0,0,0,.17,0,.17,0,.01,0,.02-.01.02-.02.02-.09-.03-.26-.08-.44-.18-1.08.1-1.4.46h0Z"/>
                </g>
                <path class="cls-3" d="M38,146.72c.28.07.57.06.83-.04,7.01-2.67,16.74-12.9,16.34-21.61-.4-8.57-11.54-14.15-20.17-13.98-10.1.2-19.17,7.89-21.36,19.12,4.46,8.85,12.31,13.58,24.36,16.51Z"/>
                <path class="cls-14" d="M22.21,138.92c.19-1.12,1.92-10.7,9.62-14.37,5.94-2.83,14.85-1.53,22.15,3.3"/>
                <ellipse class="cls-4" cx="37.11" cy="128.97" rx="7.5" ry="5.96" transform="translate(-26.63 10.87) rotate(-12.3)"/>
              </g>
            </g>
            <g>
              <path class="cls-20" d="M63.36,321.48c-2.28-.45-27.81-7.31-35.2-26.76-8.97-23.6,5.63-44.53,20.63-48.48,7.54-1.99,18.86.85,20.58,10.6,1.7,9.67-12.44,8-25.97,15.39,10.67-9.89,26.19-9.9,30.68.74,2.91,9.47-1.2,7.17-22.93,17.4,1.97-2.35,4.84-3.82,7.08-4.48,8.15-2.43,19.84-.4,19.35,9.23-.29,11.93-18.99,12.33-18.29,13.84.2.44,2.32-.6,3.43.4.51.46.68,1.67.4,5.41-.12,1.61.94,4.16.26,6.72Z"/>
              <path d="M64.63,323.49c-.98.53-2.1.29-3.12-.02-6.37-1.8-12.45-4.48-18.08-8-9.06-5.5-16.78-14.43-19.11-25.11-4.87-17.98,4.11-39.52,22.22-46.11,6.92-2.28,14.85-1.37,20.61,3.51,3.14,2.8,5.06,6.82,5.01,11.11.05,4.72-4.86,7.89-8.68,9.05-6.85,2.25-12.85,3.41-19.97,4.51,0,0-.16.02-.16.02-.11.01-.21-.06-.22-.17,2.92-6.07,9.51-9.32,16.09-10.06,7.06-1,15.1,2.43,17.98,9.43.88,2.78,1.76,5.66.44,8.67-2.15,4.21-6.66,5.12-10.4,6.69-5.47,1.9-10.06,4.65-16.26,3.52-.09-.01-.14-.09-.13-.18.68-2.76,2.43-5.01,4.94-6.42,5.57-3.08,12.26-1.59,17.77.91,7.68,3.36,9.09,14.34,2.81,19.76-4.17,3.86-9.99,5.13-15.05,6.26,0,0-.38.11-.38.11-.07,0-.19.1.11-.11.77-.54,1.16-1.78.85-2.7-.1-.33-.3-.72-.55-.98-.72-.75-1.37-.84-1.82-.82,0,0,.04,0,.12,0,2.18-.42,5.17.2,5.86,2.8.53,2.16.15,3.88,0,5.94.09,2.63,1.4,6.27-.88,8.4h0ZM62.1,319.47c-.45.12-.91.66-.95,1.09.22-1.13,0-2.08-.19-3.31-.09-.59-.26-1.47-.28-2.06-.03-1.48.21-3.14-.08-4.49,0,.02.03.17.26.44.15.16.17.16.22.21.05.04.11.07.15.09.19.09.17.05,0,.08-.18.02-.43.06-.89.14-4.05.76-5.32-4.47-1.37-5.83,3.41-1.18,7.22-2,10.08-3.61,2.95-1.64,4.88-3.49,5.33-6.35.19-1.5.1-3.34-.72-4.57-3.06-4.18-9.32-3.83-14.09-3.38-2.68.36-5.39,1.09-8.28,2.57,0,0-.24-.31-.24-.31,1.65-2.83,3.89-4.56,6.29-5.9,3.61-1.8,7.43-3.25,11.02-4.96,1.02-.54,2.41-1.11,3.07-1.87.18-5.83-5.25-9.99-11.86-9.77-5.7.13-10.51,2.69-16.03,4.71,0,0-.26-.36-.26-.36,2.39-2.79,5.54-4.65,8.73-6.07,3.21-1.41,6.54-2.39,9.56-3.4,1.96-.78,3.82-1.26,4.89-2.77,1.23-2.67-.74-6.28-2.79-8.14-3.66-3.24-9.65-4.18-14.43-2.89-6.72,1.89-12.3,6.88-16.08,12.87-6.87,10.78-7.04,25.31-.78,36.42,6.14,10.43,17.83,16.91,29.2,20.49.49.13,1.5.45,2,.55-.36-.15-1.14.05-1.49.37h0Z"/>
            </g>
          </g>
        </g>
      </g>
    </g>
  </g>
</svg>